<?xml version="1.0" encoding="utf-8"?>
<!-- Generator: Adobe Illustrator 25.4.1, SVG Export Plug-In . SVG Version: 6.00 Build 0)  -->
<svg version="1.1" id="Layer_1" xmlns="http://www.w3.org/2000/svg" xmlns:xlink="http://www.w3.org/1999/xlink" x="0px" y="0px"
	 viewBox="0 0 1689.5 951.1" style="enable-background:new 0 0 1689.5 951.1;" xml:space="preserve">
<style type="text/css">
	.st0{fill:#F2F2F3;}
	.st1{fill:#FFFFFF;}
	.st2{fill:#020202;}
	.st3{fill:#08090A;}
	.st4{fill:#C8C7C8;}
	.st5{fill:#1A3037;}
	.st6{fill:#FBFBFB;}
	.st7{fill:#00ABD1;}
	.st8{fill:#E1457B;}
	.st9{fill:#0A819C;}
	.st10{fill:#091214;}
	.st11{fill:#02A8CD;}
	.st12{fill:#1F2125;}
</style>
<g>
	<path class="st0" d="M1016.5,396.8c0.1,2.9-1.2,4.5-2.2,6.1c-4.3,7.1-10.3,12.8-16.3,18.5c-2.9,2.7-6.1,5.1-9,7.8
		c-1.9,1.8-3.7,2-6.1,1.3c-2.6-0.8-5-1.9-7.5-3c-1.7-0.7-1.5-1.7-0.8-3c2.3-4.2,4.7-7.8,9.8-9.6c9.9-3.5,18.6-9.5,27.4-15.2
		C1013.2,399,1014.6,398.1,1016.5,396.8z"/>
	<path class="st1" d="M1017.9,369.6c2.9-4.9,6.7-9.2,10.2-13.6c5-6.4,8.4-13.4,9.1-21.4c0.1-1.2,0.5-2.3,0.6-3.5
		c0.2-2.3,1.5-2.8,3.6-2.1c10.1,2.7,20.3,4.4,31.9,5.2c-17,15.1-33.6,28.7-54.7,36.3C1018.3,370.1,1018.1,369.8,1017.9,369.6z"/>
	<path class="st2" d="M691.4,938.7c-5.1,1.1-10.2,2.5-14.4,5.6c-1.4,1-2.9,1.1-4.4,1.4c-5.8,1-11.3,2.9-16.9,4.9
		c-2.8,1-0.8-2.1-2-2.6c-1.2-0.5-2.3,0.2-3,0.9c-2.5,2.6-5.7,2.2-8.8,2.3c-1.7,0-3.1-0.2-4.1-1.7c-1.7-2.1-4.1-2.7-6.7-2.9
		c-4.1-0.2-5.1-1.4-6.4-5.2c-1.8-5.1-2-10.4-3.3-15.5c-0.6-2.3,0.7-4.7,1.5-6.8c1.7-4.1,4-7.6,8.3-9.8c3-1.6,5.7-3.7,8.9-4.9
		c-0.3-1.5-1.6-1.7-2.4-2.5c-1.9-2-2.7-3.9-2.2-7.1c1-6.6,2.6-13.1,3.6-19.6c0.1-0.6,0-1.2,0.4-1.8c4.1-5.5,4.6-12.3,7.1-18.4
		c3.4-8.4,6.5-16.9,10.3-25.1c7.2-15.4,14.3-31,22.2-46.1c4.1-8,8.2-16,12.1-24.1c3.3-7,6.1-14.2,9.2-21.4c2.3-5.5,4.9-11,7.4-16.3
		c3.1-6.5,5.9-13.2,8.5-20.1c-2.6-0.7-4.8-1.6-7.1-1.9c-8.1-1.2-13.6-6.4-18.3-12.3c-2-2.4-4.4-4.5-5.9-7.3
		c-2.2-4.1-4.8-8.1-6.1-12.6c-1-3.4-0.3-6.2,1.9-9.3c4.6-6.2,10.3-10.1,18.1-10.7c3.1-0.2,5.4-2.4,8.1-3.6c3.9-1.7,8-2.7,12.2-3.5
		c2.5-0.5,5-1.2,7.1-2.6c2.8-1.9,6-2.7,9.2-3.6c6.5-1.7,13.2-3.2,19.6-5.1c2.8-0.8,5.8-1.4,8.1-3.6c1-1,2.9-1.1,4.4-1.5
		c14.1-3.8,28.4-6.5,42.7-8.8c6.5-1,13.2-1.3,19.6-2.3c13.7-2,27.5-1.5,41.2-1.6c7.6,0,15,1.4,22.4,3c5.8,1.3,11.7,2.5,16.9,5.7
		c6.8,4.1,12.1,9.5,14.8,17.2c0.6,1.6,0.6,3.1,0.7,4.6c0,7.7-0.8,15.3-1.5,22.9c-0.4,4.1-0.3,8.3-1.3,12.4c-1.3,5.5-4.1,10.2-8.4,14
		c-4.5,4.1-9.6,7.3-14.9,10.4c-5,3-9.4,7.2-12.9,12.2c-0.6,0.8-1,1.6-1.9,2c-7.8,3.8-14.4,9.8-22.5,13.1c-3.2,1.3-5.1,4.2-7.5,6.5
		c-2,2-4.1,3.6-7.1,3.3c-1.5-0.1-2.9,0.5-4,1.4c-2.7,2.3-5.8,3.7-9.1,4.5c-3,0.8-4.5,3.4-6.3,5.5c-1.3,0.9-2.9,1-4.4,1.3
		c1,2,2.9,1.9,4.6,2.2c5.8,2.9,11.7,5.6,17.5,8.5c9.7,4.8,18.7,10.7,25.9,18.8c7.2,8.2,12.9,17.4,15.2,28.3c1,4.7,1.3,9.6,2.2,14.4
		c0.1,0.4,0.1,0.9,1.2,0.9c1.4-3.2,3-6.6,4.3-10c5-12.7,11.9-24.5,17.6-36.7c4.5-9.6,10.2-18.4,15.4-27.5c5.2-9.2,11-18,16.4-27.1
		c5.5-9.1,10.9-18.1,16.2-27.3c2.6-4.5,5.1-9.1,7.7-13.6c0.1-0.3,0.3-0.6,0.4-0.9c1.9-5.8,5-10.7,9-15.3c3.7-4.2,10.8-6.8,15.6-2
		c2.5,2.4,5.2,4.6,7.1,7.6c2.1,3.3,3.7,3.7,7.6,2.9c14.6-3,29.2-6.2,43.8-8.7c10.7-1.8,21.4-3.6,32.1-4.8
		c11.1-1.2,22.2-2.6,33.4-2.6c2.8,0,5.3,0.8,7.7,2c2.3,1.3,2.7,2.4,1.2,4.9c-1.3,2,0.2,4.6-2,6.6c-1,0.9-1,3-3.1,3.4
		c-0.6,0.1-1,0.8-1,1.5c0.1,3.8-1.9,6.9-3,10.2c-0.8,2.4-2.1,4.3-4.6,5.7c-4.9,2.7-9.6,5.9-15.1,6.3c-6.8,0.5-13.1,3.1-20,3.2
		c-5.1,0-10.2,1.9-15.3,2.7c-7.5,1.3-15,3.1-22.4,5c-8.7,2.1-17.3,4.7-25.9,7.5c-2.4,0.8-4.8,1.4-7.3,1.8c-3.1,0.4-5,2.3-6.7,4.8
		c-2.9,4.1-4.4,9-7.4,13.1c-1.8,2.4-3.6,4.8-5.8,6.9c-8.8,8.6-15.4,18.7-20.7,29.8c-0.3,0.7-0.6,1.4-1.1,2.7
		c5.3-0.6,10.2-1.1,15-1.7c4.9-0.5,9.9-0.3,14.3-2.6c-0.7-2-2-1.8-2.9-2.2c-4-2.1-4.4-7.1-0.8-9.7c1.5-1.1,3.3-2,5.1-2.5
		c9.3-2.7,18.6-5.4,28.3-6.7c7.4-1,14.9-2.1,22.4-3.2c3.7-0.6,7.5-0.5,11.3-1c3-0.4,6,0.1,8.5-2.1c0.9-0.8,2-0.6,3.2-0.2
		c4.1,1.6,8.5,2,13,2.3c2.9,0.1,5.5,1.4,8,2.8c1.5,0.8,3.7,7.3,3.3,9c-0.3,1.3-1.1,1.9-2.4,1.9c-4.1,0-8.2-0.1-12.2,0.1
		c-3.4,0.2-6.8,1-10.3,0.8c-1,0-1.9,0.6-2,1.6c-0.3,2.2-1.8,2.5-3.7,3c-7,1.8-14.2,2.4-21.3,3.3c-5,0.6-7.3,1.1-11.9,3.8
		c2,2.8,5.5,3.6,7.7,6.1c2.3,2.7,2.3,5.1-0.5,7.2c-2,1.5-4.1,3-6.5,3.8c-12.9,4.4-26,8.2-39.5,10.3c-10.4,1.6-20.1,5.4-29.8,9.3
		c-4.2,1.7-8.6,3.1-13,4.2c-2.3,0.6-3.9,1.7-5.1,3.7c-3.3,5.3-5.1,11.2-7.5,16.8c-2.2,5.1-3.7,10.4-5.8,15.5c-1,2.3,0.5,3.9,0.7,5.7
		c6.2,1.1,11.8-1.2,17.1-3.3c17.4-6.6,35-12.5,52.7-18.3c9.2-3.1,18.5-6.3,27.8-9.2c6.3-2,12.7-4.1,19.2-5c5-0.7,9.8-2.4,14.9-2.1
		c1.8,0.1,3-0.8,4.1-2c2.3-2.8,5.2-3.5,8.8-3.7c7.9-0.4,15.5-2.3,22.9-5.2c0.6-0.2,1.1-0.7,1.7-0.8c7-0.4,10-5.5,13.2-10.7
		c5.5-8.6,11.5-16.9,17.2-25.5c9.9-14.9,20.4-29.4,31.1-43.8c9.4-12.6,18.5-25.4,27.7-38.1c1.1-1.6,2.4-3,3.8-4.3
		c4.6-4.6,8.6-9.5,11.3-15.5c0.8-1.8,2.4-2.9,4.1-3.8c2-1,4.2-1.7,5.9-3.1c3.5-2.8,7.3-3.5,11.7-4.1c4.7-0.7,9.2,0,13.9-0.4
		c3.6-0.4,7.4,0.5,11.1,1.6c1.3,0.4,2.3,1.1,2.9,2.2c1.4,2.6,3.3,3.7,6.2,2.6c0.7-0.3,1.6-0.2,2.3-0.2c7.1-0.2,10.9,2.8,11.7,9.9
		c1,9.1,2.5,18.2,1.8,27.3c-1,12.5-0.6,25-0.9,37.5c-0.1,5-1,10-2.1,14.9c-0.7,3.2-0.3,6.3-0.5,9.4c-0.1,1.8,1,2.2,2.4,2
		c8.1-1.4,16.3-1.9,24.5-1.8c2,0,3.1-1.3,4-2.9c3.4-6.1,8.8-11.1,11.2-17.9c0.1-0.4,0.6-0.8,0.9-1.1c6.1-6.4,12.2-12.9,18.3-19.3
		c4.3-4.4,8.5-8.9,13.1-13c6.2-5.6,12.5-11.2,19.7-15.4c2.2-1.3,3.7-3.4,5.7-5.1c6.3-5,13.8-8.5,20-13.5c4.1-3.3,8.6-5.6,13.2-8.1
		c4.6-2.5,8.3-6.2,13.1-8.4c3.8-1.8,7.5-3,11.8-2.8c7.2,0.2,14.6-0.5,21.6,1.9c4.6,1.6,9.9,1.5,13.7,5.2c0.2,0.2,0.6,0.2,0.9,0.2
		c6.5,0.9,11.7,4.6,16.3,8.7c2.9,2.5,5.4,5.4,5.2,10.5c-0.3,10.2-4.7,19.2-7.1,28.7c-0.3,1.1-0.6,1.9-0.1,3.1
		c0.9,2.7,1.4,5.3-1.6,7.6c-1.4,1.1-1,3.6-0.4,5.4c1.3,4.1,0.4,7.6-2,10.9c-0.2,0.2-0.5,0.5-0.6,0.8c-3.2,7.8-10.5,9-17.4,10.5
		c-1.7,0.4-3.5-0.3-5.1,0.8c-0.2,0.1-0.7,0.2-0.9,0.1c-5.6-2.9-13.1-2.8-16.1-9.7c-1-2.2-1.2-4.8-1.6-7.3c-0.3-2.1,0.1-4.2-1-6.4
		c-0.6-1.4,0.7-3.8,1.3-5.6c1.3-3.5,2.9-7,4.3-10.5c0.3-0.8,1.1-1.7,0.3-2.6c-0.8-0.8-1.7-0.1-2.7,0.1c-10.3,2.5-18.8,8.5-27.5,14.1
		c-7.9,5-14.9,11-22.6,16.2c-6.8,4.6-13.8,8.8-20.4,13.7c-4.5,3.4-9.3,6.6-13.2,10.8c-0.9,0.9-2,1.8-1.2,3.2
		c0.6,1.1,1.7,1.2,2.8,1.4c7.2,1.5,14.4-0.2,21.5-0.7c5.5-0.3,11-1.1,16.4-2c6.6-1.1,13.4,0,19.8-1.1c7.4-1.3,14.5,0.2,21.7,0.4
		c8.7,0.2,16.6,3.7,24,8.1c2,1.2,4.1,3.4,4.9,5.6c2.4,6.3,6.7,11.4,10.1,17.1c1.6,2.8,2.3,5.5,1,8.4c-1.8,3.8-2,8-2.3,12
		c-0.6,8.3-4.1,14.3-10.5,19.7c-7.7,6.6-16.5,10.8-25.7,14.4c-4.1,1.6-8.3,3.3-12,5.4c-3.7,2-7.4,4.2-11.2,6
		c-5.6,2.6-10.7,5.7-15.7,9.2c-1.6,1.1-2.6,4-5.4,3.2c-2.4-0.7-4,1.8-6.2,1.8c-1.9,0-3.1,1.6-4.5,2.4c-0.7,0.4-1.4,1-1.1,1.9
		c1.3,3.4-1.4,3.9-3.4,4.2c-1.8,0.3-3.6,0.7-5.7,0.4c-2.7-0.4-6.1-1-8.8,0.5c-1.4,0.8-3.9,0.6-3.3,3.5c0.1,0.5-1.5,1.7-2.4,2
		c-2.4,0.7-4.7,1.8-7.2,2.2c-2.6,0.5-5.8,0-7.3,3.2c0,0.1-0.3,0.1-0.4,0.2c-6.1,1-10.5,5.2-15.8,7.8c-0.9,0.4-1.5,1.1-2.1,1.8
		c-2.8,2.9-6.8,2-10.2,3.1c-0.3,0.1-0.8-0.4-1.1-0.7c-1.9-1.9-4-3-6.7-2.7c-2.8,0.3-3.6-2-3.9-4c-0.3-1.9-1-2.5-2.7-2.3
		c-1.9,0.1-3.2-0.4-4.2-2.2c-0.6-1.1-1.8-2-3.1-2.8c-3.5-2-5.2-5.8-6.4-9.2c-1.3-3.4,0.5-7.6,3.9-9.4c5.3-2.8,9.3-7.6,15.1-9.6
		c7.1-2.5,13.2-6.7,20-9.8c5.7-2.5,10.7-6.6,16.1-9.9c11.4-7,22.8-14.2,34.5-20.8c3.1-1.8,5.5-4.8,8.9-6.2c8-3.1,15-8.1,22.4-12.3
		c1.9-1,4.7-1.6,4.9-4.7c-1.6-0.6-3.3-1-4.8-1.7c-1.9-0.9-3.7-0.8-5.5-0.2c-2,0.7-4.1,1.7-6.1,0.1c-0.6-0.4-1.2-0.1-1.8,0.1
		c-4.5,2.3-9.5,1.9-14.3,3.1c-3.3,0.8-6.6,1.3-10.2,1c-3.6-0.3-7.4,1.1-11.1,1.9c-0.6,0.1-1.3,0.6-1.8,0.4
		c-4.4-0.8-8.6,0.3-12.9,0.6c-5,0.3-9.7,1.5-14.3,2.7c-6.8,1.9-12.4,0-17.7-3.6c-1.8-1.3-3.1-3.6-4.2-5.6c-2.9-5-6.3-9.6-7.6-15.3
		c-0.4-1.6-1.3-2-2.6-2.1c-5.1-0.1-10.2-0.5-14.4,3.1c-2,1.7-4.6,1.3-6.7,3.1c-4,3.5-4.2,7.9-3.8,12.3c0.2,2.3,0.7,4.3-1.2,6.1
		c-1.2,1.1-1,2.6-1,4c0,3.3-0.3,6.7,0.1,10c0.7,5.5-1.4,10.5-2,15.8c-0.1,1-1,1.6-1.9,2c-1.5-1.6-1.9-3.6-1.8-5.7
		c0.2-3.5-0.2-6.9-0.9-10.3c-0.1-0.8-0.1-1.9-1-1.6c-0.9,0.2-2.7,0.1-2.4,1.7c0.4,3.1-0.7,6.1-0.4,9.2c0.5,6.1,0.2,12.4,0.2,18.6
		c0,1.9-2.4,3.3-1.6,5.2c0.7,1.6,0.3,3.3,1.2,5.1c2-1,2-3.7,4.6-3.9c0.1,3.1,2,5.9,0.6,9.3c-0.4,1,0.5,2.7,0.7,4.1
		c0.7,4.2-1.1,8.1-2,12c-0.5,2.3-0.8,4.6-0.8,7c0,2-0.5,4.1-2.2,4.9c-3.6,1.6-2,6.3-5.3,7.8c2,2.3,0.3,4.7,0.3,7.1
		c0,1.6-0.6,1-1.7,0.9c-1-0.1-2.3,0.9-3.1,1.7c-2.1,2.5-4.5,2-6.9,1c-3.5-1.5-5.3-4.2-5.6-8c-0.1-1.7-0.3-3.5-0.3-5.2
		c0-2.5,1-5.1-1-7.2c0.2-6.9-1.8-13.7-1.4-20.6c0.3-5.2-1.2-10.2-1-15.4c0.4-14.5,0-29.1,0.3-43.7c0.1-4.4-2-8.5-1.1-12.9
		c0.3-1.3-1-1.3-2-1.3c-2.9-0.1-5.6,0.9-8.3,1.4c-7.3,1.3-14.3,3.7-21.4,5.6c-1.2,0.3-2.7,1.3-3.7-0.7c-0.5-1-1.4-0.3-2,0.1
		c-6.2,3.6-13.5,4-20,6.7c-2.4,1-5.2,1-7.3,2.9c-0.3,0.3-0.9,0.7-1.2,0.1c-0.8-1.5-1.7-1.4-3.1-0.7c-1.6,0.8-3.1,1.5-3.9,3.3
		c-2.6,5.7-6.9,10.4-9.2,16.3c-1.5,3.8-3.7,7.2-7.1,9.8c-1,0.8-1.8,2.3-2.1,3.6c-0.7,2.8-1.9,5-4.3,6.7c-1.6,1.1-2.5,2.6-2.7,4.9
		c-0.4,4.4-3.7,7.5-6.4,10.8c-1.6,1.9-3.5,3.3-3.5,6.4c0,2.7-2.8,4.4-4.2,6.7c-2,3.1-3.8,6.6-7.4,8.4c-1.5,0.8-2,2.4-2.7,3.9
		c-0.9,2-2.4,2.9-4.5,2.4c-1.9-0.4-2.9,0.6-4.1,1.7c-1.9,1.9-3.8,3.8-6.9,3.5c-0.4,0-1.2,0-1.3,0.3c-1.8,3.7-4.6,1.8-7.3,1.6
		c-5.2-0.4-10.5-0.1-15.7-0.2c-2.7,0-5.4,0.1-8.1,0c-2.9-0.1-3.8-1.7-3.5-4.6c0.7-8.7,3.8-16.8,7.3-24.6c2.2-4.9,5.2-9.3,7.8-14
		c3.3-5.9,6.7-11.7,9.7-17.8c1.8-3.5,4.2-6.6,6.3-10.4c-4.3-1.1-7.8,1-11.5,0.6c-4-0.5-6.2,3.1-9.3,5.1c0.2,0.7,0.3,1.5,0.6,2.3
		c0.3,1.1,1.9,2.4,1,3.4c-1,1-2.6,1.9-4.1,2c-7,0.7-13.2,4.2-19.8,5.9c-2.5,0.6-2.8,3.8-5.5,3.9c-2.2,0.1-4.4-0.4-6.6,0.4
		c-1,0.3-2,0.8-3.3,1.2c1,2.1,3.4,0.2,4.6,2c-4.3,2.3-8.3,4.7-13.2,5.4c-5,0.8-9.4,3.3-14.3,4.4c-4.1,4.7-9.9,4.6-15.3,5.9
		c-2.7,0.6-5,2.5-7.5,3.7c-6.2,3.1-12.9,5-19,8.5c-5.8,3.4-12.1,6.1-18.7,7.8c-6.9,1.9-13.3,4.9-19.8,7.8
		c-7.1,3.2-14.8,4.2-22.2,1.9c-7.2-2.3-14.4-5-21.7-7.1c-2.1-0.6-4-2-5.4-3.8c-2.4-3-3.7-6.7-6.5-9.6c-2-2-0.3-4.8,0.2-7.4
		c-3.7,0.7-5.6,3.5-8,5.4c-11.7,9.4-24.3,17-38.1,22.8c-4.2,1.8-8.2,4-12.8,4.6c-0.9,0.1-1.8,0.7-2.5,1.3c-3.1,2.7-7,3.3-10.6,4.7
		c-0.7,0.3-1.8,0.2-2.2,0.7c-3.3,3.5-7.8,3.8-12.2,4.9c-3.4,0.9-6.8,2.6-9.4,5.1c-1.7,1.6-3.7,2.7-5.8,2.8c-4.3,0.2-8.3,1-11.9,3.5
		c-0.3,0.2-0.9,0.2-1.4,0.2c-2.6,0-5.4,1.1-7.7,1c-3.2-0.3-5.3,1.3-8,1.9s-5.1,1.7-7.6,2.6c-1.3,0.5-2.7,1-4,1.5
		c-0.8,0.3-1.4,0.7-2.3,0.4c-0.6-0.1-1.3-0.5-1.4-1.1c-0.2-0.7,0.2-1.2,0.9-1.4c1.3-0.5,2.6-1.1,4-1.6c3.1-1,5.6-2.7,8.1-4.7
		c3.1-1,6.2-2,9.3-3.1c1-0.3,1.1-1,0.9-1.8c-0.3-1-1-1-1.8-0.6c-2.9,1.2-5.8,2.3-8.7,3.4c-5.8,0.5-11.2,3.5-17.4,2.4
		c-3.1-0.5-6.1,2.1-9.2,3.3c-6.1,2.4-12.2,4.7-18.8,5.4c0-0.4-0.3-1.3-0.2-1.3c1.9-0.8,3.2-2.5,5.5-2.8c2.3-0.3,5.1-0.8,6.3-3.5
		c0,0,0.2,0,0.3,0.1c0.3,0.6,0.2-0.7,0.5-1C700.5,934.6,695.9,936.6,691.4,938.7z M834.8,734.9c-2.6,0-4.2,1.6-6.2,3.5
		c3.2,0.5,4.5-1.8,6.4-3c1.7-0.5,3.4-0.8,4.3-3.4C837.1,732.7,835.8,733.4,834.8,734.9z M841.4,731.2c4-1.3,6.7-4.7,10.7-5.8
		c-4.9,0-7.6,1.4-11.2,5.5c-0.4,0.1-0.9,0.4-0.4,0.8C840.9,732,841.2,731.6,841.4,731.2z M759.7,731.7c2,1,3.3-0.5,4.9-1.1
		c11.6-5.2,22.1-12.3,33.3-18.2c12.4-6.5,24.6-13.6,36.9-20.4c6.9-3.9,14-7.3,20.5-11.8c7.1-4.9,13.6-10.7,20.2-16.3
		c1.9-1.6,4.7-2.2,5.2-5c-0.6-1.1-1.6-1.2-2.5-1.2c-5.6,0.3-11.1-0.9-16.9-0.3c-9.2,1-18.3,2-27.5,3.7c-2.2,0.4-4.2,2.3-6.1,1.8
		c-2.3-0.6-3.9,0.2-5.8,0.8c-1.8,0.5-3.6,1.4-5.3,1.5c-11.5,0.6-21.3,6.2-31.6,10.3c-1.2,0.5-2.9,2.1-1.7,3.3c2.7,3,1.1,5.6,0,8.3
		c-1.6,4.2-2.4,9.1-5,12.6c-7.4,10.1-13.3,21-18.8,32.1c0.2-0.2,0.3,0,0.2,0C759.2,731.9,760.1,732.1,759.7,731.7z M661.7,897.7
		c6.5-2.4,12.9-5.1,19.5-7.1c13.8-4.4,27.7-8.4,41.6-12.8c15.2-4.8,30.2-9.8,45.4-14.7c18.4-5.9,36.3-13,53.5-21.7
		c5.2-2.6,10.2-5.7,15.4-8.2c3.9-1.9,7.4-4.7,9.2-9.2c0.5-1.3,1-2.5,2.3-3.5c1.2-0.9,2.4-2.5,1.7-4.1c-1.1-2.4-2.2-5-4.8-6.2
		c-3.2-1.5-5.8-3.8-8.6-5.8c-1.6-1.1-3.1-1.9-5.1-2.3c-4.7-1.2-9.3-2.8-13.9-4.4c-3.5-1.3-6.6-3.8-10.7-2c-0.3,0.1-1,0-1.3-0.2
		c-3.5-3.1-8.1-2.6-12.1-3.1c-6.9-0.7-13.6-2.5-20.4-3.1c-2-0.2-3.9-1-5.8-0.1c-3.1-2.7-7.1-1.7-10.6-2.4c-5.1-1-10.3-0.6-15.5-1.6
		c-3.2-0.6-4.3,0-5.3,3.2c-1,2.9-2.4,5.5-3.9,8.1c-1.5,2.8-3.3,5.5-4.3,8.4c-2.5,7.7-5.5,15.1-9.8,22c-2.3,3.6-4.5,7.2-8.8,8.8
		c-2.1,0.8-3.6,2.6-5,4.3c-0.5,0.6-0.6,1.7-1.4,1.8c-3.8,0.6-3.8,4.1-5.2,6.6c-0.8,1.3-1,3-1.5,4.5c-0.9,2.7-2,5.1-5.4,4.6
		c-1-0.1-1.7,0.8-1.5,1.4c0.9,2.5-0.4,3.6-2.3,4.9c-2.2,1.6-2.2,5.3-5.6,5.9c1,2.6-1.6,4-2.1,6.2c-0.7,3.1-2.2,5.9-3.2,8.9
		c-1,3.2-3.8,4.3-6.5,5c-2.9,0.8-3.1,0.4-3.8,1.6c-1.2,2-3,3.3-4.5,4.8c-1.2,0.9-3.1,1-3.7,3.4C659.3,899.3,660.5,898.5,661.7,897.7
		z M1234.7,720.4c-2,0.3-2.8,1.5-3.5,2.7c-5.6,8.3-12.6,15.6-17.9,24.2c-2.8,4.4-7.2,7.8-9,13c-0.2,0.6-0.8,1-1.2,1.4
		c-7.2,5.5-10.2,14.1-16.2,21.3c14.6-3.6,28.9-5.9,42.4-11c3.7-1.4,4-1.3,3.7-5.1c-0.6-10.6,1.9-21,0.8-31.6c0-0.7,0.1-1.2,0.3-1.8
		C1235.5,729.2,1234.5,724.9,1234.7,720.4z M671.8,881.4c1.1-0.4,1.5-1.3,1.5-2.5c0-0.5-0.3-1-0.8-0.9c-1.3,0.3-1.5,1.4-1.7,2.5
		C670.7,881,671.1,881.4,671.8,881.4z M1254.7,818.4c-1,1.8-1.2,3.8,0,5.7C1254.7,822.2,1254.7,820.3,1254.7,818.4z M760.7,923.6
		c-0.1-0.2-0.2-0.7-0.4-0.7c-0.5-0.2-0.9,0.1-1,0.6c0,0.2,0.2,0.7,0.4,0.7C760.2,924.4,760.6,924.2,760.7,923.6z M757.1,918.1
		c-0.5,0.1-0.8,0.5-0.6,1c0,0.2,0.5,0.4,0.7,0.4c0.5,0,0.8-0.4,0.6-0.9C757.7,918.3,757.3,918.3,757.1,918.1z M759.9,917.2
		c-0.5,0.1-0.8,0.5-0.6,1c0,0.2,0.5,0.4,0.7,0.4c0.5,0,0.8-0.4,0.6-1C760.6,917.4,760.2,917.3,759.9,917.2z M1112.5,882.4
		c0.2-0.1,0.6-0.1,0.8-0.3c0.2-0.4,0-0.9-0.4-1c-0.2,0-0.6,0.1-0.7,0.3C1111.9,881.7,1112,882.1,1112.5,882.4z M1122.2,860.9
		c-0.5,0.2-0.7,0.6-0.4,1c0.1,0.2,0.5,0.4,0.8,0.3c0.5-0.1,0.7-0.6,0.4-1C1122.9,861.1,1122.4,861,1122.2,860.9z M1066.9,842.7
		c-0.1-0.3-0.1-0.7-0.3-0.8c-0.4-0.2-0.9,0-1,0.4c0,0.2,0.1,0.7,0.3,0.8C1066.2,843.4,1066.6,843.2,1066.9,842.7z M1125.9,856.5
		c0.3-0.3,0.6-0.7,0.9-1c-0.2-0.1-0.4-0.4-0.6-0.4c-0.5,0-0.9,0.3-0.8,0.9C1125.3,856.1,1125.6,856.3,1125.9,856.5z"/>
	<path class="st2" d="M277.8,914.6c-3,3.7-3.8,8.7-6.6,12.7c-2.4-0.8-3.4-3.3-5.6-4.4c-1.1,1.3-1.3,3-1.7,4.6c-0.7,3.1-1.7,4-5,3.8
		c-4.5-0.3-9-1-13.5-1.5c-4.1-0.5-6.9-2.7-8.7-6.4c-1.2-2.6-1.4-2.5-4.6-1.8c0.3-5.7,0.3-11.2,0.5-16.8c0.4-9.2,3.2-17.9,4.2-26.9
		c0.7-6.6,3.3-13,5.2-19.4c4.7-15.8,10-31.4,15.4-46.9c4.1-11.8,7.9-23.7,12.6-35.3c4.9-12.1,9.8-24.2,14.4-36.4
		c1.2-3.2,3.3-6.2,3.6-9.9c-1.8-0.3-2.4,1-3.2,1.9c-5.5,5.8-11.1,11.5-16,17.9c-6,7.7-12.1,15.3-17.8,23.3
		c-4.4,6.1-8.9,12.2-12.8,18.7c-2.8,4.7-6.1,9.2-10.1,13.1c-2,1.9-3.7,4-4.8,6.8c-1.4,3.5-4.4,6.2-7.1,8.8
		c-11.3,10.7-20.4,23.2-29.5,35.7c-1.6,2.2-3.4,4.1-5.7,5.6c-4.1,2.7-8.1,5.4-12.2,8.2c-1,0.7-2,0.7-3.1,0.8
		c-6.1,0.7-12.2,1.6-18.1,3.6c-4.2,1.4-8.3,1.2-12.5,0.2c-4.7-1.1-7.8-4.1-8.8-8.4c-1.1-4.8-4.1-8.7-4.9-13.5
		c-0.1-0.9-0.4-1.8-0.4-2.7c0.1-8.4,0.1-16.8,0.1-25.3c0-4.7,1.2-9.2,1.5-13.8c0.4-5.8,2.4-11.2,2.1-17.2c-0.1-2.7,0.7-5.8,1.1-8.7
		c1.2-7.8,1.8-15.5,2.7-23.4c0.3-2.6,1.2-5.2,1.8-7.8c1.7-8,0.4-16.1,0.1-24.4c-1.3,1.8-2.8,3.5-4.1,5.3
		c-5.9,8.2-10.8,17.1-15.7,25.9c-6.2,11.2-11.9,22.6-17.8,34c-6.6,12.7-12.7,25.7-17.2,39.4c-1.5,4.5-4,8.5-6.2,12.7
		c-2,3.7-2.7,7.6-2.9,11.8c-0.2,5.6-1.3,11.1-2.8,16.6c-1.6,5.9-4.9,11.2-5.6,17.4c-0.3,2.6-2.1,5.2-4,7.4
		c-3.5,4.1-5.7,8.8-6.8,14.3c-0.9,4.9-2.1,10-6.4,13.4c-1.5,1.2-3,2.4-5.2,1.9c-0.1-1.8-0.2-3.5-0.3-5.2c-1.7-0.2-2.4,0.5-2.8,2
		c-0.4,1.9-1.7,3.4-3.5,3.4c-7,0-13.7,2.8-20.8,2c-1-0.1-1.8-0.2-2.8-0.5c-5.3-1.7-5.6-2.1-5.7-7.6c-0.1-6.4-0.1-12.9,2-19.1
		c0.3-1,0.2-2.2,0.1-3.3c-0.2-6.6,1.3-12.9,4.2-18.8c0.5-1.1,0.4-2.2,0.4-3.2c-0.2-4.8,0.5-9.3,2.5-13.8c1.7-3.7,2.4-7.8,3.1-11.9
		c1.1-6.3,3.1-12.5,5.4-18.5c7.5-19.7,13.4-39.9,20.6-59.8c5.2-14.3,10.3-28.6,15.6-42.8c5.5-14.7,11.4-29.3,17.9-43.7
		c6.3-14,12.7-27.9,20.5-41.2c2.2-3.8,4.6-7.6,7.4-10.9c1.8-2.1,4.9-3,6.7-5.1c2.7-3,6.1-4.4,9.7-5.6c4.9-1.6,6.9-0.9,10,3.4
		c1.6,2.1,4.2,2.2,6.4,2.3c9.7,0.1,19.3,1.5,29,1c4.4-0.2,8.2,1.1,11.9,3.7c3,2,6.7,2.8,10.2,3.5c3.9,0.9,6.9,2.8,9.7,5.4
		c4.3,4.1,7.8,8.7,11.1,13.6c1.2,1.9,1.8,3.8,2,5.7c0.6,5.7,0.2,11.5-1.5,17.1c-1.3,4.2-1.4,8.8-3,12.7c-2.2,5.6-2.7,11.6-4.3,17.3
		c-0.6,2-1.4,3.8-2.1,5.7c-2.7,8.1-3.7,16.4-5,24.8c-2.2,13.6-5.3,27-8.8,40.3c-0.6,2.4-0.2,4.5-0.2,6.9c3.6-3.3,6.5-6.9,9-10.8
		c5-7.7,10.1-15.3,15.7-22.5c3.2-4.2,5.1-9.4,8.5-13.5c2.2-2.7,4.4-5.4,6.8-7.9c2.2-2.3,4.1-4.7,5.6-7.6c2.3-4.5,5.7-8.2,9.1-11.9
		c3.7-3.9,7.5-7.7,10.6-12.1c0.3-0.4,0.6-0.8,0.9-1.1c6.6-5.6,11.2-12.8,17.1-19.1c2.5-2.7,5.4-5.2,6.7-9c0.4-1.2,1.9-2.1,2.9-3.1
		c3-3,5.5-6.4,7.9-9.9c2-2.9,4.9-5.3,7.4-7.8c3.9-3.8,8.1-7.2,11.2-11.8c1.6-2.4,3.9-4.1,6.1-5.8c4.4-3.5,8.8-7.2,12.8-11.2
		c2-2,4.6-2.7,7.2-3.3c4.9-1.2,9.8-1.9,13.5-6c1.1-1.3,3.4-2.1,5.1-2.1c6-0.2,12-0.9,17.9,0.8c0.6,0.2,1.3,0.4,1.7,0.8
		c4.4,4.7,10.3,7.2,15.4,10.9c5.3,3.8,9.9,8.3,13.5,13.7c3.3,5,3.1,10.7,2,16.1c-1.6,7.8-4,15.5-8.7,22.3c-0.2,0.3-0.2,0.9-0.3,1.5
		c3.1,0.7,5.9-0.8,8.7-1.3c7.9-1.3,15.4-4.1,23.2-6c7.9-2,16-3.3,24-4.3c3.2-0.4,6.5-1.1,9.7-1.9c5.7-1.3,11.4-1.9,17.2-2.7
		c12.4-1.7,24.9-1.5,37.4-2c5.8-0.2,11.7-0.9,17.5-0.6c15,0.7,29.8,2.4,43.8,8.1c7.1,2.9,12.4,8,17.1,13.9c1.3,1.6,1.7,3.3,1.6,5.2
		c-0.1,3.3,2,6.8-0.7,10c-0.2,0.2,0.4,1.1,0.6,1.7c1.4,4.1,1,8.4,1,12.7c0,2.3-0.5,4.5-2,6.1c-2.5,2.7-4.4,5.7-6.6,8.7
		c-0.8,1-1.3,2-3,1.5c-1.9-0.6-3.6,0.9-5.4,1.2c-0.7,0.1-1,0.6-1.2,1.3c-1.5,5.2-5.8,8.3-9.8,11.2c-7.9,5.7-16.7,9.6-26.2,12.2
		c-4,1.1-7.3,4.1-11.3,5.6c-5.3,2-9.3,6.3-14.9,7.6c-3.2,0.7-6,2-8.6,3.9c-0.8,0.5-1.3,0.9-1.6,2c-0.5,2.9-2.1,5.6-5,6.4
		c-1.9,0.5-2,1.4-1.7,2.6c1.2,4.7,0.6,9.6,2,14.4c1.4,4.8,1.7,9.8,2.5,14.8c0.8,5.2,1.7,10.5,2.4,15.8c0.7,5.1,1.3,10.3,2,15.4
		c0.8,6.1,1.9,12.1,2.4,18.2c0.3,3.8,0.7,7.4,2,11c0.5,1.5-0.2,3-1.3,3.8c-3.1,2.3-3.9,5.5-3.9,9.1c0,2.3-0.4,4.1-3,5.2
		c-2.2,1-2.3,3.8-2.4,6.2c-0.1,4.5-1.6,5.9-6.1,5.2c-3.9-0.6-7.6-1.7-11.5-2.4c-2-0.4-3.3-1.5-4.4-3.2c-2.3-3.4-3.8-7.3-6.5-10.4
		c-1.4-1.6-0.6-3.6-1.3-5.4c-2.9-7.1-3.8-14.5-4.7-22.1c-1.7-12.8-4.7-25.3-7.6-37.8c-0.8-3.5-1.8-7.1-1.5-10.7
		c0.1-1.8-0.5-3.4-1-5.1c-1.5-4.5-3.1-8.9-4.7-13.3c-0.6-1.9-1.6-2.5-3.5-1.6c-3.7,1.8-7.8,0.7-11.6,1.6c-1.5,0.3-2.4,0.7-1.7,2.3
		c0.8,1.6-0.2,2.3-1.3,3c-3.9,2.4-7.7,4.8-10.3,8.7c-0.8,1.2-1.8,2.2-2.2,3.6c-2.6,7-6.5,13.3-9.2,20.3c-2.7,6.7-6.6,12.9-9,19.7
		c-0.7,2.1-1.9,4-2.5,6.1c-0.4,1.3-0.9,2-2.2,2.5c-2.6,1-2.1,4.1-2.4,6.2c-0.4,2.9-1,5.5-2.6,8c-0.2,0.4-0.3,1.2-0.6,1.3
		c-5.3,1.7-5.1,6.5-6,10.7c-0.1,0.7-0.2,1.4-1,1.4c-4.1,0-4.5,3.3-5.5,5.9c-1.1,3.1-4.5,4.4-5.2,8.7c-1.2-2.7-2.6-2.9-4.5-2.6
		c-2.8,0.4-5.9-0.6-8.1,2.1c-0.6,0.7-1.8,1-2.7,0.6c-4.2-1.5-8.5-0.8-12.7-0.7c-3.6,0-5.3-1.5-5.9-6.1c-1-7.6,1.9-14.4,4.3-21.4
		c5.4-15.6,10.2-31.4,15-47.1c1.8-5.9,4.3-11.5,6.6-17.2c0.8-2,2.3-3.5,0.4-6c-1.1-1.3,0.6-4.5,2.6-5.3c3.4-1.3,5-3.8,6.3-7
		c6.4-14.9,14.2-29,21.8-43.2c3.3-6.1,6.5-12.3,9.1-18.8c1.6-4.1,3.9-7.9,6-12.1c-2.4-1.2-4.1,0-5.8,1c-2.1,1.4-4.1,3-6.5,4
		c-3.8,1.6-6.3,1.4-8.9-1.6c-2.3-2.7-5.6-3.9-7.9-6.6c-1.2-1.4-3.3-1.7-5.2-1.9c-2-0.2-3.2,0.5-4,2.5c-2.2,5.3-4.9,10.4-8.4,15.1
		c-2.1,2.8-3.6,6.2-4.6,9.8c-1,3.5-2.5,6.8-4.1,10.1c-3.1,6.4-6.2,12.8-10.1,18.8c-0.5,0.8-1,1.5-1.3,2.5c-1.7,6-4.4,11.5-7.3,17
		c-3.7,7-6.3,14.3-8.7,21.7c-1.7,5.1-3.8,10.1-6.1,14.9c-1.5,3.2-2.1,6.5-2.8,9.9c-0.3,1.7-0.4,3.9-1.9,4.8c-3.2,2-3.4,5.9-5.7,8.5
		c-1.2,1.5-2.2,3.8-1.5,6.6c1,3.4-1.2,6.7-2.3,9.9c-0.9,2.6-1.5,5-1,7.8c0.7,4.5-1.2,8.7-1.9,13c0,0.3-0.2,0.7-0.4,0.8
		c-4.1,2.9-3.4,7.3-4,11.3c-0.9,6.1-1.9,12.1-2.7,18.1c-0.3,2.2,0,4.4-0.1,6.7c0,1.8-0.2,3.5-2.6,1.5c-0.4-0.4-1-0.4-1.2,0
		c-2.1,3.6-2.4-0.3-3.3-0.9c-0.4-0.3-0.2-1.5-0.3-2.2c0-0.8-0.1-1.6-1.2-1.7c-0.9-0.1-1.6,0.3-2,1c-0.5,0.8-0.9,1.7-1.3,2.5
		c-0.3,0.6-0.9,0.9-1.6,0.8c-1-0.1-1-1-1.1-1.8C278.4,916.7,279.5,915.7,277.8,914.6z M442.1,757.7c5.9-1.5,10.3-4.4,15.1-6.4
		c15.6-6.5,31.4-12.4,46.7-19.5c3.6-1.7,7.3-2.9,10.9-4.5c9.1-4.2,17.4-9.7,25.6-15.2c3.4-2.3,6.6-4.9,9.7-7.5
		c3.1-2.7,2.5-5.4-1.3-6.7c-0.4-0.1-1-0.1-1.4-0.2c-4.6-1-9.2-1.6-14-1.9c-4.6-0.3-9.1,1.2-13.7,1c-4.6-0.3-9.1,0.9-13.6,1.1
		c-6.2,0.3-12.4,1.5-18.6,2.6c-6.5,1.1-12.8,3-19.4,3.9c-2,0.3-3.1,1.3-2.7,4c0.7,4.1-0.1,8-2.6,11.7c-2.1,3.1-4.6,6.3-5.7,9.8
		c-1.9,6.1-5.8,10.7-9.5,15.5C445.1,748.8,443.7,752.9,442.1,757.7z M287.9,914.5c0.9,0.1,1.5-0.4,1.5-1c0.1-4,0.1-7.9,0.1-11.9
		c0-1-0.6-1.4-1.5-1.4c-1.2,0-1.6,0.8-1.6,1.9C286.6,906.3,286,910.6,287.9,914.5z M297.5,860.9c0.7-0.2,1-0.8,0.9-1.4
		c-0.2-0.6-0.6-1.5-0.9-1.5c-1,0-0.8,1-0.8,1.7C296.6,860.2,296.7,860.8,297.5,860.9z M288.3,728.7c0.1,0.1,0.2,0.2,0.3,0.3
		c0.1-0.2,0.2-0.4,0.3-0.6c0-0.1-0.2-0.2-0.3-0.3C288.5,728.3,288.4,728.5,288.3,728.7z"/>
	<path class="st3" d="M588.4,304.2c-0.6-38.2,4-74.7,13.8-111.1c-95.2-12.2-189.9-24.2-285.4-36.4c2.5-0.9,4.3-0.9,6.2-0.9
		c81.8,0,163.6,0,245.5,0.1c3,0,10.6-0.2,14.9-0.2c-11.2-0.7-13.4-6.7-10.5-12.4c-0.5-0.3-0.8-0.5-1-0.5c-10.1,0.6-8.7,0.6-15.4-6
		c-7.1-6.9-13.7-14.1-20.4-21.4c-3.8-4.2-5.1-8.2-2.3-13.3c0.3-0.7,0.7-1.4,0.3-2.3c-1.4-0.7-2.8,0-4.1,0.1c-3.2,0-5.4-1.1-6.8-4.2
		c-3.3-7.8-5.9-15.8-6.8-24.2c-0.3-2.9-0.2-5.7,0.3-8.5c1.4-7.3,5.8-11.4,13.2-12.1c31.2-2.8,62.3-5.5,93.5-8.3c6-0.5,12-1.2,18-1.6
		c2.7-0.1,4.8-1.1,7-2.6c17-12,34.9-22.5,54.2-30.6c7.5-3.1,15.4-5,23.1-7.5c0.9-0.3,1.9-0.4,2.8,0c15.9,5,32.3,8.2,48.6,11.7
		c12.2,2.6,23.8,6.5,35.1,11.7c9.8,4.5,19.9,8.4,29.8,12.7c11.4,5,23.5,7.5,35.7,10.1c14.9,3.2,29.9,5.8,44.7,9.5
		c3.2,0.8,6.3,2,9.2,3.8c18.8,11.6,37,24.1,54.6,37.5c4.5,3.4,7.5,7.6,9.7,12.7c2.4,5.7,4.9,11.3,7.5,17c1.5,3.4,3.9,6.1,6.9,8.3
		c14.4,10.7,28.6,21.6,41.8,33.9c6.4,6,12.2,12.5,17.8,19.2c5.8,7,12.6,13,19.7,18.5c1.6,1.3,3.2,2.6,5,3.7
		c17.3,11.3,29.1,27.7,40.7,44.3c2.3,3.3,2.6,6.1,0.3,10c-6.9,11.8-13.2,23.9-19.7,35.9c-1.5,2.7-3.3,5-5.5,7.1
		c-8.2,7.7-17.1,14.2-27.3,19c-2.2,1-4,2.5-5.5,4.4c-6.3,7.3-12.8,14.6-19.2,21.8c-5.6,6.4-12.2,11.5-19.6,15.7
		c-8,4.5-16,9.2-24.4,12.9c-3.7,1.6-4.4,9.2-4.4,9.8c1.6,1,2.7,0.1,3.8-0.3c2.6-0.9,5.1-1.8,7.7-2.6c3.1-1,3.1-1,3.6,2.2
		c0.9,5.3-0.8,10-3.4,14.5c-4.9,8.4-11.2,15.8-18.1,22.7c-2.5,2.5-3.7,4.8-3.4,8.7c0.8,8.3-3.5,14.9-11.5,17
		c-7.9,2.1-13.8,6.6-19.6,11.9c-9.6,8.8-19.5,17.2-30.9,23.7c-4,2.2-8.1,3.5-12.7,3.1c-22.6-1.9-44.7-6-65.8-14.5
		c-9-3.6-17.3-8.4-26.5-14.1c8.6-2.3,16.1-4.3,24.7-6.6c-7.7-4.5-15.4-7.3-23.2-11.1c6.4-4.4,13.3-6.7,19.2-10.7
		c-0.5-1.8-1.8-1.4-2.8-1.4c-11.8-0.1-21.2,4.9-28.5,13.8c-4,4.8-7.1,10.1-9.2,16c-0.3,1-0.3,2.2-1.9,3c-3-2.2-6.1-4.6-9.2-6.9
		c-1.4,1.6-0.9,3.2-0.9,4.8c0,22.2,5.6,43,15,63c10.7,22.7,25.3,42.5,43.5,59.7c0.9,0.8,2.2,1.3,2.2,3.1
		c-62.6-17.8-118.4-47.9-167.1-91.6c-2.4,2.4-4.6,4.7-6.8,6.9c-2.6,2.6-2.6,2.6-5.1,0.2c-7.7-7-14.8-14.3-21.5-22.3
		c-33.2-39.5-53.5-84.9-61.7-135.7c-2.7-16.5-3.8-33.1-3.5-49.9c0-0.6,0-1.2,0-2.9C593.5,298,591.2,300.8,588.4,304.2z
		 M1063.2,334.4c0.1-0.1,0.2-0.3,0.4-0.5C1063.5,334.1,1063.3,334.2,1063.2,334.4c-0.4,0.2-0.8,0.5-1.1,0.8
		c-2.3,0.3-38.6,29.6-40.4,32.8c2.9-1,26.6-16.1,33.8-24.7c1.2-1.4,6.1-6.4,6.9-7.8C1062.7,335.1,1063,334.7,1063.2,334.4z
		 M935.7,172.5c1.8-3,6.1-11.5,6.1-15.2c-9,2.9-17.5,6.2-27.4,6.3c4.6,6,7.8,12,10.4,18.3c0.7,1.6,1.7,2,3.3,1.9
		c5.5-0.8,10.4-2.7,14.4-6.7c1.8-1.8,3.5-3.7,5.2-5.5c1.9,2.7,3.8,5.3,5.6,8c0.7,1,1.9,1.8,1.2,3.2l-0.1,0.2
		c-0.6-0.1-1.3-0.2-1.8-0.5c-2.8-1.9-4.8-1.2-7.4,0.9c-7.1,5.9-15.4,8.3-24.7,6.7c-1.7-0.3-3.4-0.3-5.1-0.5
		c-0.4-0.5-0.8-0.5-1.2-0.1c-2.5,0-4.9-1-7.4-0.4c-3.4-0.9-6.9-1-10.3-1.1c-15.8-0.9-31.5-1.8-47.3-2.6c-3.8-0.2-7.7,0-11.6,0
		c0.5,1.8,2,2.2,2.9,3.3c0.2,0.3,0.9,0.2,1.3,0.3c1.3,1.9,3.1,3.3,5,4.5c0.3,0.4,0.6,0.8,0.9,1.1c10.3,8.7,20.6,17.4,30.9,26.1
		c3.2,2.7,6.4,5.5,9.6,8.3c-0.1,0.2-0.2,0.4-0.3,0.7c-6.4-0.6-12.8-1.2-19.2-1.9c-1-1.1-2.3-0.8-3.6-1c-14.2-1.9-28.3-3.7-42.5-5.5
		c-12.9-1.7-25.8-3.3-38.7-5c-13.8-1.7-27.7-3.3-41.6-5.1c-19.4-2.5-38.7-5-58-7.5c-13.8-1.8-27.7-3.6-41.5-5.3
		c-10.2-1.3-20.4-2.6-30.6-4c-2.3-0.3-3.5,0.4-4,2.8c-1.5,7.3-3.3,14.5-4.7,21.9c-3.2,16.3-5.1,32.9-6.4,49.5
		c-0.3,3.5-0.8,7.1,0.3,10.9c3.3-2.5,4.4-6.6,7.9-8.4c0,2.7,0.2,5.1,0,7.4c-1.3,15.5-1.2,31.1,0,46.6c1.2,16.7,4.1,33,8.5,49.1
		c8.8,32.7,23.2,62.7,43.3,90c7.7,10.5,16.3,20.3,25.7,29.4c1.7,1.7,3,2,4.7,0.1c1.7-1.9,3.6-3.6,5.3-5.4c1.2-1.3,2.3-1.3,3.7-0.1
		c2.1,1.9,3.8,4.3,6.4,5.6c1.3,1.6,2.7,3.1,4.7,3.9v0c3.7,4.6,8.6,7.7,13.2,11.3c8.7,6.8,17.3,13.6,26.9,19.2
		c0.6,0.5,1.1,1.1,1.8,1.5c15.6,10,31.8,19.1,48.5,27.1c1,0.5,2,1.1,3.1,1c10.1,5.1,20.4,9.7,31.4,13.2c-0.1-1.5-0.8-2.2-1.4-2.9
		c-7.9-10-14.6-20.8-20.3-32.2c-12-23.6-18.9-48.4-18.2-75.1c0.2-6,0.8-12,1.2-18.1c1.1-0.3,1.7,0.4,2.5,1c3.8,3.1,7.7,6,11.5,9
		c13.4-19.7,18.6-21.6,32.6-27.2c-7-6.8-38.5-23.1-44.2-22.8c3.8,8.3,10.6,14.7,14.8,23.2c-2.5,0-3.7-1.3-4.9-2.1
		c-25.3-17.6-52.4-31.7-81.1-42.8c-6.3-2.4-12.7-5-19.4-6c-6.8-1.8-13.7-3.6-20.5-5.4c7.1-0.4,14,0.5,20.8,1.7
		c28.3,5,54.3,16.2,79.3,29.7c0.4-0.5,0.7-0.8,0.8-1c1.7-6.3,4.3-8.1,10.6-7.1c3.5,0.5,6.7,1.8,10,3.2c8.5,3.6,16.5,8.2,24.4,12.8
		c1.4,0.9,2.8,2,4.9,2.2c-0.2-2.1-1.5-3.1-2.4-4.2c-3.9-4.7-7.9-9.2-12.1-13.5c-5.6-5.9-11.6-11.2-17.5-16.6c0-0.7,0-1.4,0.1-2.1
		c5.4,2.6,10.4,5.7,15.3,9.1c17.9,12.7,32.9,28.1,43.5,47.6c1.4,2.6,3.1,5.1,3.2,8.3c-4,1.1-7.4,3.1-10.7,5.3
		c0.2,1.6,1.3,1.8,2.1,2.1c4.6,2,8.9,4.6,13.2,7.1c2.3,1.4,4,3.8,3.6,5.7c-0.6,2.5-2.4,3.4-4.8,3.9c-4,0.8-7.9,1.8-11.8,2.8
		c0.3,1.9,1.6,2,2.5,2.3c3.1,1.2,6.2,2.4,9.3,3.5c18.5,6.5,37.6,10,57,11.3c2.3,0.1,4.5-0.2,6.4-1.3c3.7-2.1,7.5-4.1,10.5-7.2
		c1.3-0.9,2.7-1.7,4-2.6c8.4-6.3,16.1-13.4,23.8-20.4c1.7-1.5,3.4-2.7,5.6-3.4c3.2-1,6.3-2,9.5-3.1c2.6-0.9,4.3-2.6,4.8-5.4
		c0.5-2.8,0.3-3.1-2.5-3.7c-1.1-0.2-2.3-0.2-3.2-0.8c-3.1-1.9-5.5-1.4-7.8,1.3c-2.6,3.1-6,3.2-9.6,2.5c-5.7-1.1-10.8-3.6-15.9-6.3
		c-3-1.6-4.2-3.6-3.5-6.8c0.8-1.7,1.7-3.4,2.4-5.2c0.8-2.2,3.6-4.1,2.9-6.2c-0.8-2.3-4.1-2.7-6.2-4c-5.5-3.1-11.2-6.1-16.1-10.2
		c-3.5-2.9-3.8-4.1-2.5-8.1c0.5-1.7,0.9-3.4,1.5-5c0.6-1.7,0.2-2.6-1.4-3.4c-3.1-1.7-6-3.5-9.1-5.2c-1.6-0.9-2.2-1.9-1.5-3.8
		c1-2.5,3.2-5.2,2.1-7.5c-1-2.1-4.1-3.2-6.3-4.7c-0.2-0.1-0.6,0-1.1,0.1c0,4.7,0.5,9.4,0.8,14.1c0.5,7.3,3.1,13.7,7.1,19.9
		c4,6.1,23.4,20.4,24.3,29.2c-5.6-0.5-16.3-13.3-19.4-13.7c2.3,4.7,4.8,8.5,7.3,12.2c2.6,3.8,5.4,7.5,8.7,12c-2.4-1-4.1-1.6-5.6-2.1
		c-2.8-2.9-6.4-4.6-9.2-7.4c-10.9-11-17.9-24.1-21.5-39c-4.7-19.1-4.9-38.3-0.9-57.5c2.4-11.7,7.8-21.5,17.2-29.3
		c7.6-6.3,15.5-12.1,23.4-17.8c1.2-0.9,2.9-1.5,3.3-3.2c6.1,0,12.2,0.1,18.2,0.1c-0.6,1.1-0.1,2.1,0.4,3.1c1.9,3.9,3.8,7.7,5.7,11.5
		c2.3,4.7,6,8.1,10.7,10.4c17.9,8.8,36.6,15.3,56.3,18.5c9.8,1.6,19.6,1.8,29.2-1.2c14-4.3,25.6-12.5,36-22.5c0.8-0.8,1.4-1.7,2-2.7
		c2.2-3.9,4.3-7.8,6.4-11.7c1.2-1.1,0.7-2.5,0.8-3.9c0.6-0.4,1.7-0.5,1.7-1.4c0-1.2-1-0.9-1.7-0.9c-2.2,0.1-4.4,0.2-6.6,0.3
		c-1.1,0-2.3,0.1-2.9-1.1c-2.6-6.1-5-12.2-6.1-18.8c-0.2-1.4,0.7-2,1.9-2.1c4.8-0.2,9.7-1.3,12.9,4.2c1.5,2.7,4.4,4.4,7.5,5.5
		c1.6,0.6,2.9,0.5,2.7-1.8c1.3-0.7,1.1-2,1.2-3.2c3.1-2,3.3-2.4,1.4-5c-4.1-5.7-8.4-11.2-12.5-16.8c-5.6-7.6-12.1-14.3-19.9-19.7
		c-4.3-3-8.4-6.2-12.5-9.5c-7-5.4-14.7-6.1-22.9-3.9c-4.4,1.2-8.8,2.8-13.2,4.2c-1,0.3-2.3,0.1-2.6,2c1,0,1.9,0.1,2.8,0
		c3.9-0.4,7.5,0.5,11,2.4c9.2,4.9,18.8,9,27.5,16.7c-1.2-5.6-3.3-9.8-5.1-14c0.7,0,1.3,0,2,0c3.9,6.9,6.5,14.3,8.7,21.9
		c0.9,3.3,0.9,6.8,2.7,9.9c0,1.2,0.1,2.5,0.1,3.7c-0.2,2.6,0.8,5,1.8,7.3c2.5,6,5.8,11.6,8,17.8c-0.8,2,0.6,4.4-1.2,6.2
		c-2.4-2-3.5-4.9-4.9-7.5c-6-12.1-10.4-24.9-14.7-37.7c-1.3-3.9-3.5-6.6-7-8.5c-7.3-4.1-14.8-7.9-22.5-11.3c-1.5-0.7-3-1-4.6-1
		c-5.5,0.1-11.1,0-16.6,0.4c-6.3,0.4-12.6,1.3-18.7,3.4c-2.7,0.9-4.7,2.3-6.4,4.7c-2,2.9-9.5,12.3-11.7,15c-0.4-2.6,0,0-0.4-2.6
		c1.3-2.3,6.2-9,7.3-11.4c2.9-6.5,8.2-9.8,14.8-11.5c2.4-0.7,4.9-1.3,7.4-1.8c2-0.4,4-1,5.9-1.8c7.2-2.9,14.3-5.9,21.5-8.8
		c0.9-0.4,2.3-0.1,2.4-1.7c-5.3-2.8-5.3-2.8-10.3-2.5c-8.5,0.4-40.6,6.7-40.9,6.1c6.4-3.7,26.5-8.2,33.9-10.6
		c-11.9-3.6-24.1-4.1-36.7-4.4c1.8-1.4,3.5-1.5,5.1-1.8c8.8-1.4,17.7-1.1,26.5-1c1.4,0,2.8,0.4,4.2,0.8c8.6,2.3,16.9,5.5,24.8,9.4
		c2.8,1.3,5.6,1.7,9.2,1.3c-2.3-2.6-3.9-5.3-7.1-5.7c-14.9-1.4-28.1-7.1-40.7-14.9c-2.2-1.4-4.5-2.2-7.1-2.6
		c-4.4-0.6-28.3,2-28.4,1.3c6.9-3.5,21-6.6,28.9-6c3.6,0,6.7,0.8,9.9,2.8c8.4,5.4,17.5,9.5,27.3,12.1c2,0.5,4.1,1.1,6.2,1
		c-0.1-1.4-0.9-1.8-1.4-2.3c-7.5-8.2-15.8-15.6-24.2-22.9c-11.7-10.2-25-18.3-36.2-29.5c-0.5,3.1-0.5,6.2-1.6,8.9
		c-1,2.6-3.2,4.8-6,6.4c1.7-4.6,2-9.3,1.6-14.1c-0.5-5.1-1-10.1-1.3-15.2c-0.5-7.1-3.6-12.6-9.2-16.9c-11.6-8.8-23.7-17.1-35.7-25.3
		c-10.6-7.2-21.3-14.5-34.5-16.3c0-1.3-0.1-2.6,0.2-3.8c0.4-1.9-0.5-2.1-2-2.4c-9.4-1.7-18.9-3.1-28.4-4.8c-4.6-0.9-9.3-1.8-14-2.3
		c-10.2-1.2-20.7-1.2-30.3-5.7c-12.2-4.6-24-10-35.9-15.2c-4.2-1.9-8.4-3.6-13-4.6c-17.1-3.8-34.1-7.5-51-11.8
		c-6.3-1.6-12.1-1.3-18.1,0.7c-18.3,5.9-34.9,15.1-51.2,25.1c-0.5,0.3-1,0.8-0.9,1.5c0.5,0.5,1.1,0.4,1.8,0.2c5-0.9,10.1-1,15.2-1.2
		c2.2-0.1,4.5-0.1,6.6,0.8c1,0.4,2.3,0.9,2.5,2c0.2,1.4-1.1,2.2-2.2,2.8c-2.8,1.7-6.1,2-9.2,2.3c-23.2,2.3-46.5,4.4-69.7,6.6
		c-25.9,2.4-51.9,4.9-77.7,7.3c-5.8,0.6-7.1,2-7.3,7.7c-0.2,7,1.7,13.5,4,20c1.1,3.2,1.4,4.4,5.4,3.5c1.4-0.3,2.9-0.2,4.3,0
		c4.4,0.7,6.6,3.9,5.6,8.2c-0.4,1.9-1.1,3.7-2,5.3c-1.3,2.5-0.9,4.2,1,6.3c6.8,7.6,13.8,14.9,21,22.1c1.5,1.5,3.1,2,5.1,1.7
		c2-0.3,4.1-0.6,6.1-0.5c5.3,0.2,7.9,4,6.6,9.2c-0.4,1.3-1.4,2.5-1.1,4.2c2.5,0.8,5-0.3,7.4-0.3c3.9,0,7.6,0.4,10.4,3.6
		c0.7,1.8-0.8,3.6-0.2,5.6c44.9,0,89.5,0,134.2,0c0.1,0,0.2-0.1,0.3-0.3c0.2-0.6-0.6-0.2,0.4-0.6c-5-2.2-9.7-4.4-14.5-6.5
		c-2.1-1.1-4.1-2.2-6.3-3.3c-18.6-9-45.5-21.7-64.2-30.7c0.7-0.8,268.3-4.1,267.7-7.3c4.4,0.8,26.5,18.8,28.5,22.4
		c1.8,3.2,2.4,7,4.1,10.5c2.1-10.3,0.2-24.4-0.9-30.6c0.6,0,10.6,18.9,4.4,35.7c-0.2,0.6-0.4,1.2-0.6,1.8c-0.1,0.4-0.1,1,0,1.4
		c1.2,6.8,3,8.5,10.1,9.6c2.2,0.3,4.4,0.6,6.6,0.9c1,0.1,2.3-0.2,4,1c-8.6,2.1-16.3,4.7-24.6,3.1c-1-0.5-0.8-2-2.1-2.4
		C944,163.4,937.1,173,935.7,172.5z M1050.7,333.6c-10.4-0.7-19.6-2.3-28.6-4.8c-1.9-0.5-3.1-0.1-3.2,2c-0.1,1.1-0.4,2.2-0.5,3.3
		c-0.6,7.5-3.7,13.9-8.1,19.9C1007.1,358.2,1035.5,347.6,1050.7,333.6z M455.9,164.7c0,0.3,0,0.7-0.1,1
		C590.4,182.8,725,200,859.6,217.1c-14.3-13.7-29.6-26.1-44.1-39.6c33.7,1,67.2,2.5,101.1,5c-1.5-6.7-3.9-12.5-7.5-17.8
		c-1-1.4-2.3-2-4-2.3c-3.6-0.6-7.1-1.7-10.5-3.1c-0.9-0.3-2.4-0.3-2.2-2c1,0,1.9-0.1,2.8-0.2c15.9-0.6,31.1-4.1,45.8-10.2
		c1.8-0.8,2.6-1.6,2.2-3.5c-0.5-2.5-0.8-5-1.3-7.5c-0.8-3.6-1.1-3.8-4.8-3.9c-17.8-0.5-35.6-1-53.3-1.5c-34.1-1-68.3-1.9-102.4-2.8
		c-28.3-0.8-56.5-1.5-84.8-2.2c-1,0-2.1-0.5-3.2,0.9c26.2,12.6,52.1,25.1,78,37.6c0,0.2-0.1,0.5-0.2,0.8
		C666.2,164.7,561,164.7,455.9,164.7z M971.9,388.3c1-1.2,2-2.5,3-3.7c9.2-10.9,18-22.2,26.7-33.6c4.9-6.4,7.9-13.2,8.6-21.2
		c0.3-4.1,0.6-4.1-3.5-5.6c-9.4-3.3-18.6-7.2-27.5-11.7c-5.9-3-10.3-7.3-13.4-13.1c-1.2-2.4-2.3-4.9-3.7-7.2c-1.1-2-1.6-4.5-3.6-6.5
		c-9,6.6-18,13.2-26.2,20.6c0.9,1.7,2.1,2.2,3.1,3c6.2,5.2,12.3,10.5,17.4,16.9c2.7,3.4,4.6,7.1,4.6,11.7c0.1,11.4,1.3,22.8,3,34.1
		c1.5,9.9,3.2,19.7,7.2,29c1.7,3.8,1.7,3.9,5.5,1.9c11.6-6.2,22.5-13.7,33.4-21.1c3.1-2.1,4-5,4.4-8.9
		C998,378.9,985.2,384.1,971.9,388.3z M960.6,407.4c-2.2-5.7-4-10.4-5.2-15.3c-4.4-17.3-6.1-35-6.7-52.8c-0.1-3.1-1-5.5-2.9-7.8
		c-5.3-6.6-11.8-12-18.3-17.3c-1.8-1.4-2.7-0.8-3.9,0.7c-2.3,2.7-4,5.8-5.1,9.1c-2.7,7.5-3.8,15.4-4.7,23.3c-0.3,2.4,1,4,2.5,5.4
		c2.9,2.7,6.1,5,9.7,6.8c6.2,3.2,6.2,3.2,4,10c-1.3,3.8-1.2,3.7,2.1,5.9c2.7,1.8,6.8,2.4,8,5.6c1.2,3.3-0.4,6.9-1.5,10.2
		c-0.8,2.4-0.1,3.9,2,5.1C946.7,400.1,953,403.7,960.6,407.4z M1001,396.1c-1.9,1.2-3.2,2.1-4.7,3.1c-8.8,5.7-17.5,11.6-27.4,15.2
		c-5.1,1.8-7.5,5.4-9.8,9.6c-0.7,1.3-0.9,2.3,0.8,3c2.5,1,4.9,2.2,7.5,3c2.3,0.7,4.2,0.5,6.1-1.3c2.9-2.7,6.1-5.1,9-7.8
		c6-5.7,12-11.3,16.3-18.5C999.8,400.7,1001.1,399,1001,396.1z M989.2,427.1c0.7,0.6,1.6,0.4,2.2,0c4.4-3.1,7.8-7.4,11.3-11.3
		c4.2-4.6,8.2-9.4,11.3-15.3c-4.7,0.9-5.1,0.9-6.1,2.7c-4.3,8.9-11.2,15.6-18.1,22.4C989.5,426,988.9,426.3,989.2,427.1z
		 M592.7,154.1c-3.8,0-6.6,0.6-9.3,1.6C586.3,155.5,589.4,157.1,592.7,154.1z M926.3,410.9c-0.1,0.1-0.2,0.2-0.3,0.3
		c0.1,0.1,0.2,0.2,0.3,0.3c0.1-0.1,0.2-0.3,0.3-0.5C926.5,411,926.4,411,926.3,410.9z M836.7,410.9c-0.1,0.1-0.3,0.2-0.3,0.4
		c0,0.1,0.2,0.2,0.3,0.3c0.1-0.1,0.3-0.2,0.3-0.3C837,411,836.8,411,836.7,410.9z"/>
	<path class="st2" d="M1518.7,683.1c8.3,1.6,17.1-1.8,26.2-3.2c8.8-1.3,17.3-4.1,26.4-4.3c5.6-0.1,11.2-1.5,16.7-2.3
		c0.6-0.1,1.2-0.3,1.9-0.3c5.8,0.6,11.1-2,16.7-2.4c5.2-0.4,10.3-1.2,15.4-2.1c7.1-1.2,14.3-1.8,21.5-2.4c6-0.5,11.9-1.4,17.9-1.2
		c6.7,0.2,13.3,0.1,20,0c2,0,3.7,0.3,5.4,1.5c3.2,2.3,3.3,2.3,0.7,5.2c-1.4,1.6-1.2,3.8,0.7,5.1c0.7,0.5,1.6,1.2,1.1,1.6
		c-1.9,1.5-2.2,2.5,0,4c0.4,0.3,0.3,2-0.3,2c-2.6,0.4-2,3.8-4.6,4.3c-1.7,0.3-2,2.6-1.8,3.5c0.6,2.1,0,3.6-1.3,5.1
		c-1.4,1.6-2.9,3.1-5,3.3c-6.4,0.5-12.6,2-19,2.9c-5.1,0.7-10.6,0.9-15.3,4c-2,1.3-4.4,1.8-6.7,2c-6.2,0.8-7.4,1.9-7.6,7.9
		c-0.1,3-1.1,5.3-3.1,7.6c-2.5,2.8-4.1,6.3-7.1,8.8c-0.3,0.3-0.6,0.8-0.6,1.2c-0.9,8-6,14.1-9.2,21c-0.5,1-1.3,1.8-2.3,2.3
		c-0.9,0.5-1.4,1.2-1.8,2.1c-4.1,9.2-8.7,18.1-12.3,27.4c-4.8,12.3-10,24.4-14.8,36.8c-2.5,6.4-4.4,13.1-7.3,19.4
		c-3.1,6.5-5.8,13.2-8.6,20c-0.9,2-1.5,4.1-2.2,6.2c-0.8,2.2-1.2,4.4-4.1,5.2c-1.5,0.4-2.1,2.2-2.7,3.8c-2,5.1-3.8,10.3-5.7,15.4
		c-0.8,2.2-2.2,4.2-3.2,6.3c-2,4.1-8.1,6.2-13,5c-6-1.5-11.7,0.4-15.8,5.1c-2.1,2.3-4.1,4.7-7.9,3.9c-1.6-0.4-2.7-0.9-2.7-2.7
		c0.1-2.5-0.2-5.1,0.4-7.6c1.5-5.9,2.8-11.8,4.4-17.6c2.7-9.6,5.4-19.2,8.5-28.7c3.5-10.7,6.3-21.7,10.1-32.4
		c4.8-13.9,10.4-27.5,15.6-41.1c5.1-13.3,11.1-26.3,16.3-39.6c2.3-5.8,4.6-11.8,7.6-17.3c0.5-1,1.1-2,1.4-3c0.3-1.3-0.9-2-1.6-1.5
		c-2.5,2-5.2,0.9-7.7,0.7c-6.4-0.4-11.3,2.2-15.6,6.5c-0.4,0.4-1,1.4-1.1,1.3c-4.2-1.6-7.1,3.2-11.3,2.1c-1.6-0.4-3.4-0.3-4.9-1.4
		c-0.2-0.2-0.5-0.5-0.8-0.5c-8.6-1.4-10.6-9.2-14.8-15c-0.8-1.1-1.6-2.3-2.6-3.3c-1.1-0.9-2.2-1.7-2.5-3.2c-0.2-1.3-1.3-2.1-2.6-2.6
		c-2.7-1-3.4-3.3-3.3-5.7c0-2.6,0.3-5.6,2-7.6c2.9-3.5,6.1-6.7,9.4-9.9C1512.1,682.6,1514.9,683,1518.7,683.1z"/>
	<path class="st4" d="M691.4,938.7c4.6-2,9.1-4.1,14.5-6.5c-0.3,0.3-0.2,1.6-0.5,1c0,0-0.3-0.1-0.3-0.1c-1.2,2.7-4,3.1-6.3,3.5
		c-2.3,0.3-3.6,2-5.5,2.8c-0.1,0,0.1,0.9,0.2,1.3C691.7,941.1,691.6,939.8,691.4,938.7z"/>
	<path class="st5" d="M671.8,881.4c-0.6,0-1-0.3-1-0.9c0.2-1,0.4-2.2,1.7-2.5c0.6-0.1,0.8,0.4,0.8,0.9
		C673.3,880.1,672.9,881,671.8,881.4z"/>
	<path class="st5" d="M760.7,923.6c-0.1,0.5-0.5,0.8-1,0.6c-0.2,0-0.4-0.5-0.4-0.7c0-0.5,0.5-0.8,1-0.6
		C760.5,923,760.6,923.4,760.7,923.6z"/>
	<path class="st5" d="M757.1,918.1c0.2,0.1,0.6,0.2,0.7,0.4c0.1,0.5-0.1,0.9-0.6,0.9c-0.2,0-0.6-0.2-0.7-0.4
		C756.3,918.6,756.5,918.3,757.1,918.1z"/>
	<path class="st5" d="M759.9,917.2c0.2,0.1,0.6,0.2,0.7,0.4c0.2,0.5-0.1,0.9-0.6,1c-0.2,0-0.7-0.2-0.7-0.4
		C759.2,917.7,759.4,917.3,759.9,917.2z"/>
	<path class="st6" d="M759.7,731.7c0.4,0.5-0.4,0.3,0.2,0.2c0.1,0,0-0.2-0.2,0C759.6,731.9,759.7,731.7,759.7,731.7z"/>
	<path class="st1" d="M288.3,728.7c0.1-0.2,0.2-0.4,0.3-0.6c0.1,0.1,0.3,0.2,0.3,0.3c0,0.2-0.2,0.4-0.3,0.6
		C288.6,728.9,288.4,728.8,288.3,728.7z"/>
	<path class="st7" d="M653.8,114.5c3.6-8.1,7.1-16.4,10-25c2.9-8.6,5.7-17.1,7.3-26.3c-1.6,0.4-1.9,1.4-2.4,2.1
		c-5.3,7.5-9.7,15.6-13.3,24.1c-1.3,3.1-3,3.9-6.1,3.8c-5.7-0.2-11.4-0.7-17-1.6c-22.4-3.5-44.2-9.7-65.8-16.7
		c-5.3-1.7-13.4,1.6-15.7,6.7c-0.6,1.3,0.9,0.8,1.5,1c0.8,1.1,2,1.5,3.2,1.8c8,1.9,15.9,3.7,23.9,5.5c0.6,0.1,1,0,1.4-0.5
		c0.8,0,1.1,0.1,1.9,0.1c1.3,2,2.9,3,5.1,1.4c0.7,0.2,1,0.4,1.6,0.6c0.2,0.8,0.7,1.3,1.5,1.5c4.1,1.2,8.1,2.6,12.2,3.8
		c8.6,2.6,17.3,5,26.1,6.8c1.4,0.3,2.8,0.8,4.1,1.3c4.9,2.1,6.7,5.8,4.7,10.7c-2.3,5.4-3.2,10.9-2.7,16.7c0.4,4.5,1.3,8.8,3.9,13.3
		c2.6-6,4.7-11.4,6.5-16.9c2.6-3,4.1-6.6,5.9-10.1c0.9-1.8,1.9-2.3,3.6-1.2c0.5,0.3,1.1,0.4,1.8,0.7c18.6,9,37.2,18,55.9,27
		c2.1,1,4.2,2.2,6.3,3.3c0,2.2,1.9,2.7,3.4,3.5c0.9,0.4,2.3,0.1,2.4,1.8c-1.5,0.7-3.1,0.3-4.6,0.3c-37.7,0-75.4,0-113.1,0
		c-3.1,0-6.4,0.7-7.4-3.6c0-0.1-0.6-0.2-0.9-0.2c-2.8-3.2-6.5-3.6-10.4-3.6c-2.5,0-5,1.1-7.4,0.3c-0.3-1.7,0.8-2.9,1.1-4.2
		c1.4-5.1-1.2-8.9-6.6-9.2c-2-0.1-4.1,0.1-6.1,0.5c-2,0.3-3.6-0.2-5.1-1.7c-7.2-7.2-14.3-14.5-21-22.1c-1.9-2.1-2.3-3.9-1-6.3
		c0.9-1.7,1.6-3.5,2-5.3c1-4.3-1.2-7.6-5.6-8.2c-1.4-0.2-2.9-0.3-4.3,0c-4,0.9-4.3-0.3-5.4-3.5c-2.3-6.4-4.3-13-4-20
		c0.2-5.7,1.5-7.1,7.3-7.7c25.9-2.5,51.8-4.9,77.7-7.3c23.2-2.2,46.5-4.4,69.7-6.6c3.1-0.3,6.3-0.6,9.2-2.3c1-0.6,2.4-1.4,2.2-2.8
		c-0.2-1.1-1.5-1.6-2.5-2c-2.1-0.9-4.3-0.9-6.6-0.8c-5.1,0.2-10.2,0.3-15.2,1.2c-0.6,0.1-1.2,0.2-1.8-0.2c-0.1-0.8,0.3-1.2,0.9-1.5
		c16.3-10.1,32.9-19.2,51.2-25.1c6.1-2,11.8-2.2,18.1-0.7c16.9,4.2,34,8,51,11.8c4.6,1,8.8,2.8,13,4.6c11.9,5.2,23.8,10.6,35.9,15.2
		c-0.5,1.1-1.4,1-2.4,0.9c-1.9-0.3-3.7-0.6-5.6-0.9c-10-1.6-19.9-3.1-29.9-4.7c-2.3-0.6-4.6-1.9-7.6-0.4c2.5,1.5,4.9,2,7.3,2.2
		c7.9,1.9,15.7,3.8,23.6,5.5c20.4,4.4,41.1,7.9,61.8,11.3c7.4,1.2,14.8,2.6,22.3,4c1,0.3,2.5,0.7,3.4,1c0.5,0.2,1,0.2,1.5,0.1
		c13.2,1.8,23.9,9,34.5,16.3c12.1,8.2,24.1,16.5,35.7,25.3c5.7,4.3,8.8,9.8,9.2,16.9c0.3,4.6,0.6,9.2,1.2,13.8
		c0.7,5.2,0.4,10.3-1.4,15.4c2.7-1.6,4.9-3.8,6-6.4c1.1-2.7,1.1-5.8,1.6-8.9c11.2,11.2,24.5,19.4,36.2,29.5
		c8.4,7.3,16.7,14.6,24.2,22.9c0.5,0.6,1.2,1,1.4,2.3c-2.2,0.1-4.2-0.5-6.2-1c-9.8-2.5-18.9-6.6-27.3-12.1c-3.1-2-6.3-2.8-9.9-2.8
		c-7.7,0-28.8,5.1-28.5,6c2.4-0.6,23.6-1.9,28-1.3c2.6,0.3,4.9,1.2,7.1,2.6c12.5,7.7,25.8,13.5,40.7,14.9c3.3,0.3,4.9,3,7.1,5.7
		c-3.6,0.4-6.4,0-9.2-1.3c-8-3.9-16.3-7.1-24.8-9.4c-1.4-0.4-2.8-0.8-4.2-0.8c-8.9-0.2-17.8-0.4-26.5,1c-1.7,0.3-3.4,0.4-5.1,1.8
		c12.6,0.3,24.8,0.8,36.7,4.4c-7.5,2.4-30.3,8.5-33.9,10.6c4.2-0.5,32.4-5.7,40.9-6.1c5-0.2,5-0.2,10.3,2.5
		c-0.1,1.6-1.5,1.3-2.4,1.7c-7.1,3-14.3,5.9-21.5,8.8c-1.9,0.8-3.8,1.4-5.9,1.8c-2.5,0.5-5,1.1-7.4,1.8c-6.5,1.8-11.9,5-14.8,11.5
		c-1.1,2.4-7,10.6-7,13.2c1.8-2,9.7-11.4,11.7-14.2c1.7-2.3,3.7-3.8,6.4-4.7c6.1-2.1,12.3-3,18.7-3.4c5.5-0.4,11.1-0.3,16.6-0.4
		c1.5,0,3,0.2,4.3,0.9c7.8,3.5,15.4,7.3,22.8,11.5c3.5,2,5.7,4.6,7,8.5c4.3,12.8,8.7,25.5,14.7,37.7c1.3,2.7,2.5,5.5,4.9,7.5
		c2,2.1,2.6,2,2.4,1.3c-0.7-3,1.2-2.1,2.7-2c2.5,0.2,5,0.4,7.5,0.7c-2.1,3.9-4.2,7.8-6.4,11.7c-0.5,1-1.2,1.9-2,2.7
		c-10.4,10-22.1,18.1-36,22.5c-9.6,3-19.4,2.8-29.2,1.2c-19.8-3.1-38.4-9.7-56.3-18.5c-4.8-2.3-8.3-5.7-10.7-10.4
		c-1.9-3.9-3.8-7.7-5.7-11.5c-0.5-1-1-2-0.4-3.1c14.8,0.5,29.7,1,44.5,1.6c17.1,1.1,34.1,2.3,51.3,3.5c-0.3-0.8-0.8-0.9-1.3-0.9
		c-8.8-1-17.6-2.1-26.4-2.8c-7.9-0.6-15.7-1.9-23.6-1.4c-14-1.4-28.1-1.9-42.1-2c2.5-3.7,6.8-5.6,9.7-8.9c1.9-1.3,4-0.9,6-0.6
		c7.4,1,14.8,2,22.2,3.1c20.1,3,40.1,6,60.2,9c-27.3-6.9-55.2-10.7-83-14.9c0.2-1.4,1.1-2,1.9-2.9c0.7-0.7,0.1-1.9-0.9-1.8
		c-23.8,1.9-84.2-3.6-87.7-1.9c5,1.5,53.7,5.2,71.2,7.3c0.8,0.1,1.6,0.3,1.9,1.1c-5.3,2.9-11.1,5.1-15.7,9.2
		c-3.6,0.8-7.2,1.1-10.9,1.1c-11.9,0.1-59.7,2.8-59.7,2.8c13,0.7,44.4-1,57.3-0.5c0,1.9-1.8,2.1-3,2.7c-10.9,5.6-21.3,12-30.9,19.5
		c-5.6,4.3-10.8,9.4-13.4,16.3c-3.6,9.5-5,19.6-5.9,29.6c-0.7,7.1,0,14.3,1,21.3c1.8,12.6,5,24.7,11.2,36.1
		c5.2,9.5,11.9,17.6,21.2,23.2c4.4,2.6,8.9,5.7,14.5,5.2c1.6,0.6,3.1,1.2,5.6,2.1c-3.3-4.5-6.1-8.2-8.7-12c-2.6-3.7-5-7.5-7.3-12.2
		c3.1,0.4,19.5,13.2,22.3,13.7c-0.8,3.2,0.4,5.2,3.5,6.8c5.1,2.7,10.2,5.1,15.9,6.3c3.6,0.7,7,0.7,9.6-2.5c2.2-2.7,4.7-3.2,7.8-1.3
		c0.9,0.6,2.1,0.6,3.2,0.8c2.8,0.6,3,0.9,2.5,3.7s-2.2,4.5-4.8,5.4c-3,1-6,2-9.1,3c-2.2,0.7-4.2,1.8-5.9,3.3
		c-7.8,7.1-15.6,14.3-24,20.6c-1.2,1-2.6,1.8-4,2.6c-8.5-0.1-17.1-0.1-25.5-1.3c-8.4-1.1-16.9-2.3-25.2-3.8
		c-4.8-0.9-9.8-1.1-14.5-3.1c0.2-0.4,0.3-0.6,0.4-0.7c0.8-0.5,1.7-0.9,2.5-1.3c5.5-3,6.6-6.1,2.9-11.1c-4.7-6.2-10.4-11.4-17.9-14.3
		c-0.1-3.1-1.9-5.7-3.2-8.3c-10.5-19.4-25.6-34.8-43.5-47.6c-4.9-3.4-9.9-6.5-15.3-9.1c-1.4-1.3-2.9-2.4-5.3-2.4
		c1.7,2.1,3.4,3.4,5.2,4.6c6,5.4,12,10.8,17.5,16.6c4.1,4.4,8.2,8.9,12.1,13.5c1,1.1,2.2,2.1,2.4,4.2c-2.1-0.2-3.5-1.4-4.9-2.2
		c-8-4.6-15.9-9.2-24.4-12.8c-3.2-1.4-6.5-2.7-10-3.2c-6.3-0.9-8.9,0.9-10.6,7.1c-0.1,0.3-0.4,0.5-0.8,1c-25-13.5-51-24.8-79.3-29.7
		c-6.9-1.2-13.7-2.1-20.8-1.7c6.8,1.8,13.7,3.6,20.5,5.4c2.2,2.8,5.7,3.1,8.6,4.4c10.7,4.8,21.6,9,31.8,14.8
		c13.2,7.5,25.6,15.9,35.6,27.4c5.4,6.2,10.5,12.8,12.1,21.2c-0.4,6-1,12-1.2,18.1c-0.8,26.7,6.2,51.5,18.2,75.1
		c5.8,11.3,12.4,22.2,20.3,32.2c0.6,0.7,1.3,1.4,1.4,2.9c-11-3.6-21.3-8.1-31.4-13.2c0.1-1.5-0.9-2.2-2-3
		c-13.8-9.6-27.3-19.5-39.9-30.6c-8.7-7.6-17.5-15-26-22.9c-10.2-9.5-20.6-18.9-30.3-29c-2-2.1-3.8-5.3-6.6-5.9
		c-3.2-0.7-5.5,2.6-8.3,4c-3.7,1.8-3.8,2-6.5-0.6c-10.4-9.9-19.1-21.1-25.6-34c-3.9-7.8-7.3-15.8-10.2-24
		c-3.3-9.8-5.6-19.7-7.6-29.8c-1.5-7.6-2.2-15.3-3.1-23c-0.8-7.9-1.8-15.7-1.7-23.6c0.1-13.3-0.4-26.6,1-39.9
		c0.5-4.4,0.5-8.9,1.1-13.2c1.1-8,1.5-16,3.5-23.9c0.3-1,0.7-2.5-0.9-3.5c-4.1,1.1-8.1,2.2-12.2,3.2c-2.3,0.6-3.1-0.2-2.5-2.4
		c0.6-2.1,0.6-4.4,1.1-6.5c1.7-6.8,3.5-13.5,5.7-20.1c0.7-1.9,0.6-4.2,1.9-5.8c1.7-2.1,4.1-0.2,6.2-0.2c11.7,0.2,23.4-0.3,35.2,0.7
		c11,1,22.2,0.1,33.2,1c11.5,0.9,23.1-0.1,34.7,0.9c10.4,1,20.9,0,31.3,1c11.2,1,22.4-0.1,33.7,1c11.2,1,22.4-0.1,33.7,1
		c8.2,0.8,16.5,0.2,24.7,0.2c1.4,0,2.9,0.5,3.9-1c6.4,0.6,12.8,1.2,19.2,1.9c0.1-0.3,0.1-0.3,0.3-0.7c-3.2-2.8-6.3-5.5-9.5-8.2
		c-10.3-8.7-20.6-17.4-30.9-26.1c-0.3-0.3-0.6-0.7-0.9-1.1c3.3-0.3,6.7-0.7,10-0.9c4-0.2,8,0.4,11.8-0.2c10.5-1.6,21.1,0.1,31.6-1.7
		c2.7,1.2,4.8,0.4,6.7-1.6c2.5-0.5,5,0.4,7.4,0.4c0.4,0,0.8,0.1,1.2,0.1c1.7,0.1,3.5,0.1,5.1,0.5c9.3,1.7,17.6-0.8,24.7-6.7
		c2.6-2.1,4.6-2.8,7.4-0.9c0.5,0.3,1.2,0.3,1.8,0.5c0.1,0.5,0.4,0.7,0.9,0.6c0.1,0,0.3-0.5,0.2-0.6c-0.2-0.3-0.6-0.6-1-0.2
		c0.7-1.5-0.6-2.3-1.2-3.2c-1.8-2.7-3.8-5.3-5.6-8c0-2.8,0.1-5.6,0.1-8.3c8.2,1.7,16-0.9,24.6-3.1c-1.7-1.2-2.9-0.8-4-1
		c-2.2-0.3-4.4-0.6-6.6-0.9c-7.1-1.1-8.9-2.9-10.1-9.6c-0.1-0.5-0.1-0.9,0-1.4c0.1-0.7,0.3-1.3,0.6-2c3.5-7.8,1.1-21.8-1.8-29.7
		c-4.9-12.2,3.2,18.5-1.7,24.7c-1.7-3.6-2.4-7.3-4.1-10.5c-2-3.7-25.3-21-29.7-21.8c0.7,3.2,13.9,12.3,15.8,13.8
		C930.7,122.9,655.5,116.2,653.8,114.5z"/>
	<path class="st8" d="M455.9,164.7c105.1,0,210.3,0,315.5,0c0-0.2,0.1-0.5,0.2-0.8c-25.9-12.5-51.9-25-78-37.6
		c1-1.3,2.2-0.9,3.2-0.9c28.3,0.7,56.5,1.4,84.8,2.2c34.1,0.9,68.3,1.9,102.4,2.8c17.8,0.5,35.6,1,53.3,1.5c3.7,0.1,4,0.3,4.8,3.9
		c0.6,2.5,0.9,5,1.3,7.5c0.3,1.9-0.4,2.7-2.2,3.5c-14.7,6.1-29.9,9.6-45.8,10.2c-1,0-1.9,0.1-2.8,0.2c-0.1,1.8,1.3,1.7,2.2,2
		c3.4,1.3,6.9,2.4,10.5,3.1c1.7,0.3,3,0.9,4,2.3c3.7,5.2,6,11.1,7.5,17.8c-33.9-2.5-67.4-4-101.1-5c14.5,13.4,29.8,25.8,44.1,39.6
		c-134.6-17.1-269.2-34.3-403.8-51.4C455.9,165.4,455.9,165,455.9,164.7z"/>
	<path class="st9" d="M868.7,227.5c-1,1.5-2.6,1-3.9,1c-8.2,0-16.6,0.6-24.7-0.2c-11.2-1-22.5,0-33.7-1c-11.2-1-22.5,0-33.7-1
		c-10.5-0.9-21,0-31.3-1c-11.6-1-23.2,0-34.7-0.9c-11.1-0.9-22.2,0-33.2-1c-11.7-1-23.4-0.5-35.2-0.7c-2,0-4.5-1.9-6.2,0.2
		c-1.2,1.6-1.2,3.9-1.9,5.8c-2.3,6.6-4.1,13.3-5.7,20.1c-0.5,2.2-0.5,4.4-1.1,6.5c-0.7,2.2,0.2,2.9,2.5,2.4c4.1-1,8.2-2.2,12.2-3.2
		c1.5,1,1.1,2.4,0.9,3.5c-2,7.9-2.3,15.9-3.5,23.9c-0.6,4.4-0.7,8.8-1.1,13.2c-1.4,13.3-0.9,26.6-1,39.9c0,7.9,0.9,15.8,1.7,23.6
		c0.8,7.7,1.6,15.4,3.1,23c2,10.1,4.3,20.1,7.6,29.8c2.8,8.2,6.2,16.3,10.2,24c6.5,12.9,15.2,24.1,25.6,34c2.8,2.7,2.9,2.4,6.5,0.6
		c2.8-1.4,5.1-4.7,8.3-4c2.9,0.6,4.6,3.8,6.6,5.9c9.7,10.1,20,19.5,30.3,29c8.4,7.8,17.3,15.3,26,22.9c12.7,11.1,26.2,21,39.9,30.6
		c1.1,0.8,2,1.5,2,3c-1.2,0.2-2.1-0.5-3.1-1c-16.7-8-32.9-17.1-48.5-27.1c-0.7-0.4-1.2-1-1.8-1.5c1.1-1.2-0.2-1.7-0.8-2.2
		c-12.2-8.7-24.1-17.8-35.7-27.3c-1.1-0.9-2.2-1.2-3.5-1c0,0,0,0,0,0c-1.2-3.6-2.1-4.3-4.7-3.9c-2.6-1.3-4.2-3.8-6.4-5.6
		c-1.4-1.2-2.4-1.2-3.7,0.1c-1.8,1.9-3.6,3.6-5.3,5.4c-1.7,1.9-3,1.6-4.7-0.1c-9.4-9.1-18-18.9-25.7-29.4
		c-20.1-27.3-34.5-57.3-43.3-90c-4.3-16.1-7.2-32.5-8.5-49.1c-1.2-15.5-1.3-31.1,0-46.6c0.2-2.3,0-4.7,0-7.4
		c-3.5,1.8-4.6,5.9-7.9,8.4c-1.1-3.9-0.6-7.4-0.3-10.9c1.3-16.6,3.1-33.2,6.4-49.5c1.4-7.3,3.2-14.5,4.7-21.9c0.5-2.4,1.7-3.1,4-2.8
		c10.2,1.4,20.4,2.6,30.6,4c13.8,1.8,27.7,3.6,41.5,5.3c19.4,2.5,38.7,5.1,58,7.5c13.8,1.8,27.7,3.3,41.6,5.1
		c12.9,1.6,25.8,3.3,38.7,5c14.2,1.8,28.3,3.6,42.5,5.5C866.4,226.7,867.8,226.4,868.7,227.5z"/>
	<path class="st8" d="M960.6,407.4c-7.7-3.7-14-7.3-20.2-11.1c-2-1.3-2.7-2.7-2-5.1c1.1-3.3,2.7-6.9,1.5-10.2
		c-1.2-3.1-5.2-3.8-8-5.6c-3.3-2.2-3.4-2.1-2.1-5.9c2.3-6.8,2.3-6.8-4-10c-3.6-1.8-6.8-4.1-9.7-6.8c-1.5-1.4-2.8-3-2.5-5.4
		c1-7.9,2-15.7,4.7-23.3c1.2-3.3,2.9-6.3,5.1-9.1c1.2-1.4,2.1-2.1,3.9-0.7c6.5,5.3,12.9,10.8,18.3,17.3c1.9,2.3,2.8,4.8,2.9,7.8
		c0.7,17.8,2.3,35.5,6.7,52.8C956.6,397,958.4,401.7,960.6,407.4z"/>
	<path class="st9" d="M936.7,434.3c-5.6,0.6-10.1-2.5-14.5-5.2c-9.3-5.6-16-13.7-21.2-23.2c-6.2-11.3-9.4-23.5-11.2-36.1
		c-1-7-1.7-14.2-1-21.3c1-10.1,2.2-20.1,5.9-29.6c2.6-6.9,7.8-12,13.4-16.3c9.7-7.4,20-13.9,30.9-19.5c1.2-0.6,2.9-0.8,3-2.7
		c2.3-0.1,4.6-0.2,6.9-0.2c-0.5,1.7-2,2.3-3.3,3.2c-8,5.7-15.9,11.5-23.4,17.8c-9.4,7.8-14.7,17.6-17.2,29.3
		c-4,19.2-3.8,38.4,0.9,57.5c3.7,14.9,10.6,28,21.5,39C930.3,429.7,933.9,431.4,936.7,434.3z"/>
	<path class="st9" d="M793.8,442.6c-1.6-8.4-6.7-15-12.1-21.2c-10-11.4-22.4-19.9-35.6-27.4c-10.2-5.8-21.2-10-31.8-14.8
		c-2.9-1.3-6.4-1.6-8.6-4.4c6.8,1,13.1,3.6,19.4,6c28.7,11.1,55.8,25.2,81.1,42.8c1.2,0.9,2.3,2.1,4.9,2.1
		c-4.1-8.5-11-14.9-14.8-23.2c5.7-0.3,37.2,16,44.2,22.8c-14.1,5.5-19.2,7.5-32.6,27.2c-3.9-3-7.7-6-11.5-9
		C795.5,442.9,794.9,442.2,793.8,442.6z M812,427.4l0.1-0.2l-0.2,0L812,427.4z"/>
	<path class="st10" d="M589.3,91.5c-0.6-0.1-1.2-0.3-1.8-0.4c-1.5-1-3.1-1.6-4.9-1.5c-0.6-0.1-1.2-0.3-1.8-0.5
		c-0.5-0.3-1-0.7-1.6-0.9c-6.3-2-12.7-3.8-18.9-6.1c-2.6-1-5.5-1.3-8.1,0.5c-0.6-0.2-2,0.3-1.5-1c2.3-5.1,10.4-8.4,15.7-6.7
		c21.6,7,43.3,13.2,65.8,16.7c5.6,0.9,11.3,1.4,17,1.6c3.1,0.1,4.8-0.7,6.1-3.8c3.6-8.5,8-16.5,13.3-24.1c0.5-0.8,0.8-1.8,2.4-2.1
		c-1.7,9.2-4.5,17.7-7.3,26.3c-2.9,8.5-6.4,16.8-10,25c1.7,1.6,3.8,3,3.1,3.7c-0.6-0.2-1.2-0.3-1.8-0.7c-1.8-1.1-2.7-0.6-3.6,1.2
		c-1.8,3.4-3.3,7.1-5.9,10.1c-0.2-4.4,0-8.8,0.9-13.2c0.7-3.6,1.9-7,2.8-10.5c0.7-2.6,0.4-3.1-2.4-3.2c-3.1-0.2-6.3-0.1-9.5-0.5
		c-12.1-1.6-24-4-35.8-6.9C597.6,93.5,593.6,91.7,589.3,91.5z"/>
	<path class="st11" d="M1092.7,250.7c-1.8-3.1-1.8-6.6-2.7-9.9c-2.1-7.6-4.8-15-8.7-21.9c-0.3-1.2-1.2-2-2.3-2.5
		c-0.3-0.7-0.7-1.2-1.6-1.2c0-0.1,0-0.3-0.1-0.4c0,0-0.2,0-0.2,0c0,0.3,0.1,0.4,0.5,0.3c-0.4,0.9,0,1.6,0.7,2.2
		c0.1,0.7,0.4,1.3,1.1,1.7c1.7,4.3,3.8,8.4,5.1,14c-8.7-7.7-18.3-11.9-27.5-16.7c-3.5-1.9-7-2.8-11-2.4c-0.9,0.1-1.8,0-2.8,0
		c0.2-1.9,1.6-1.7,2.6-2c4.4-1.5,8.7-3,13.2-4.2c8.2-2.2,15.9-1.5,22.9,3.9c4.1,3.2,8.2,6.5,12.5,9.5c7.8,5.4,14.3,12.1,19.9,19.7
		c4.1,5.6,8.4,11.2,12.5,16.8c1.9,2.6,1.6,3-1.4,5c-3.4-4.2-8-7.1-11.7-11c-1-1-2.1-1.2-3.5-1.2
		C1104.3,250.2,1098.5,250,1092.7,250.7z"/>
	<path class="st9" d="M866,439.3c7.4,2.9,13.2,8.1,17.9,14.3c3.7,5,2.6,8.1-2.9,11.1c-0.9,0.4-1.7,0.9-2.5,1.3
		c-0.1,0-0.1,0.2-0.4,0.7c4.7,1.9,9.7,2.2,14.5,3.1c8.4,1.5,16.8,2.6,25.2,3.8c8.5,1.1,17,1.1,25.5,1.3c-3.1,3.1-6.8,5.1-10.5,7.2
		c-2,1.1-4.1,1.5-6.4,1.3c-19.5-1.4-38.6-4.9-57-11.3c-3.1-1.1-6.2-2.3-9.3-3.5c-1-0.4-2.2-0.5-2.5-2.3c3.9-1,7.8-2,11.8-2.8
		c2.4-0.5,4.2-1.4,4.8-3.9c0.5-1.9-1.2-4.3-3.6-5.7c-4.3-2.5-8.5-5.1-13.2-7.1c-0.8-0.3-1.9-0.6-2.1-2.1
		C858.5,442.3,862,440.3,866,439.3z"/>
	<path class="st1" d="M1001.1,366.7c2.5-4.6,6-8.5,9.1-12.7c4.4-6,7.5-12.4,8.1-19.9c0.1-1.1,0.4-2.2,0.5-3.3c0.2-2.1,1.3-2.6,3.2-2
		c9,2.5,18.2,4.1,28.6,4.8C1035.5,347.6,1001.3,366.9,1001.1,366.7z"/>
	<path class="st0" d="M948.6,425.8c-2.8-0.5-4.9-2.3-7.2-3.7c-1-0.8-16-19.5-20-25.5c-4-6.1-6.6-12.5-7.1-19.9
		c-0.3-4.7-0.8-9.4-0.8-14.1c0.5,0,0.9-0.2,1.1-0.1c2.2,1.5,5.3,2.6,6.3,4.7c1.1,2.2-1.2,5-2.1,7.5c-0.8,2-0.1,2.9,1.5,3.8
		c3.1,1.7,6,3.6,9.1,5.2c1.6,0.9,2,1.8,1.4,3.4c-0.6,1.6-1,3.3-1.5,5c-1.3,4.1-1,5.2,2.5,8.1c4.9,4.1,10.5,7,16.1,10.2
		c2.2,1.2,5.4,1.7,6.2,4C954.6,416.5,949.4,424.1,948.6,425.8z"/>
	<path class="st12" d="M905,60.6c-7.5-1.3-15-2.7-22.4-4c-20.6-3.5-41.3-6.9-61.8-11.3c-7.9-1.7-15.7-3.7-23.6-5.5
		c-0.2-0.6,0-1.2,0.2-1.8c10,1.6,19.9,3.1,29.9,4.7c1.9,0.3,3.7,0.6,5.6,0.9c1,0.1,1.9,0.2,2.4-0.9c9.6,4.5,20.1,4.5,30.3,5.7
		c4.7,0.6,9.3,1.5,14,2.3c9.4,1.8,18.9,3.1,28.4,4.8c1.4,0.2,2.4,0.5,2,2.4c-0.3,1.2-0.1,2.5-0.2,3.8c-0.7,0.2-1.4,0.1-2-0.4
		C907.2,59.5,906.3,59.5,905,60.6z"/>
	<path class="st0" d="M947.9,163c0,2.8-0.1,5.6-0.1,8.3c-1.7,1.9-3.4,3.8-5.2,5.5c-4,4-8.9,6-14.4,6.7c-1.7,0.2-2.6-0.2-3.3-1.9
		c-2.6-6.3-5.8-12.3-10.4-18.3c9.9,0,18.3-3.4,27.4-6.3c-0.1,3.6-4.5,13.1-5.8,14.8c2.4-1.1,7.1-8.2,9.7-11.4
		C947.2,161,947,162.4,947.9,163z"/>
	<path class="st0" d="M1001,396.1c0.1,2.9-1.2,4.5-2.2,6.1c-4.3,7.1-10.3,12.8-16.3,18.5c-2.9,2.7-6.1,5.1-9,7.8
		c-1.9,1.8-3.7,2-6.1,1.3c-2.6-0.8-5-1.9-7.5-3c-1.7-0.7-1.5-1.7-0.8-3c2.3-4.2,4.7-7.8,9.8-9.6c9.9-3.5,18.6-9.5,27.4-15.2
		C997.7,398.3,999.1,397.4,1001,396.1z"/>
	<path class="st11" d="M598.9,150.3c0.3,0.1,0.9,0.1,0.9,0.2c1,4.3,4.4,3.6,7.4,3.6c37.7,0,75.4,0,113.1,0c1.5,0,3.1,0.3,4.6-0.3
		c-0.1-1.7-1.5-1.4-2.4-1.8c-1.6-0.8-3.3-1.3-3.4-3.5c4.7,2.1,9.5,4.2,14.5,6.5c-1,0.4-0.1,0-0.4,0.6c0,0.1-0.2,0.3-0.3,0.3
		c-44.7,0-89.3,0-134.2,0C598.1,154,599.6,152.2,598.9,150.3z"/>
	<path class="st8" d="M1102.6,279.5c-2.1-6.1-5.4-11.8-8-17.8c-1-2.3-2-4.7-1.8-7.3c4.9,0,9.8,0,14.6-0.2c2.4-0.1,4.1,0.8,5.9,2.4
		c3.5,3.2,6.6,6.8,10.7,9.2c0.2,2.3-1.1,2.3-2.7,1.8c-3.1-1.1-6-2.8-7.5-5.5c-3.1-5.5-8.1-4.5-12.9-4.2c-1.2,0-2.2,0.7-1.9,2.1
		c1.1,6.6,3.6,12.7,6.1,18.8c0.5,1.2,1.7,1.2,2.9,1.1c2.2-0.1,4.4-0.3,6.6-0.3c0.7,0,1.8-0.3,1.7,0.9c0,1-1.1,1-1.7,1.4
		C1110.6,281.3,1106.3,282,1102.6,279.5z"/>
	<path class="st3" d="M949,280c-2.3,0.1-4.6,0.1-6.9,0.2c-13-0.5-58.1,1.6-57.3,0.5c0,0,47.8-2.6,59.7-2.8c3.7,0,7.3-0.3,10.9-1.1
		c0.5,0.7,1,1.2,1.9,1.2c4.1,0,8.3,0.1,12.4,0.1c14.1,0.1,28.1,0.6,42.1,2c0,0.5,0,1,0,1.6c-14.8-0.5-29.7-1-44.5-1.6
		C961.1,280.1,955,280.1,949,280z"/>
	<path class="st11" d="M906.9,188.9c-1.9,2-4,2.9-6.7,1.6c-0.6-0.9-1.6-1-2.5-1c-11,0.4-21.8-1.2-32.8-1c-7,0.1-14,0.7-20.9-0.5
		c-0.7-0.1-1.4,0.5-2.2,0.8c-0.5-0.1-1.1,0-1.3-0.3c-0.8-1.1-2.4-1.6-2.9-3.3c4,0,7.8-0.2,11.6,0c15.8,0.8,31.5,1.7,47.3,2.6
		C900,187.9,903.5,188,906.9,188.9z"/>
	<path class="st9" d="M841.8,188.7c0.7-0.3,1.5-0.9,2.2-0.8c7,1.2,14,0.6,20.9,0.5c11-0.1,21.8,1.5,32.8,1c1,0,1.9,0.1,2.5,1
		c-10.4,1.8-21.1,0.1-31.6,1.7c-3.9,0.6-7.9,0-11.8,0.2c-3.3,0.1-6.7,0.6-10,0.9C844.9,192,843.1,190.6,841.8,188.7z"/>
	<path class="st12" d="M1124,265.8c-4.1-2.4-7.2-6.1-10.7-9.2c-1.7-1.6-3.4-2.5-5.9-2.4c-4.9,0.2-9.8,0.2-14.6,0.2
		c0-1.2-0.1-2.5-0.1-3.7c5.8-0.8,11.6-0.5,17.4-0.3c1.3,0,2.5,0.2,3.5,1.2c3.7,3.8,8.3,6.8,11.7,11
		C1125.1,263.8,1125.3,265.1,1124,265.8z"/>
	<path class="st11" d="M707.6,497.5c1.3-0.2,2.4,0.2,3.5,1c11.6,9.4,23.5,18.6,35.7,27.3c0.6,0.4,1.9,1,0.8,2.2
		c-9.6-5.5-18.2-12.3-26.9-19.2C716.2,505.2,711.3,502,707.6,497.5z"/>
	<path class="st12" d="M1102.6,279.5c3.7,2.5,8,1.8,12.1,2.3c-0.1,1.3,0.4,2.8-0.8,3.9c-2.5-0.2-5-0.4-7.5-0.7c-1.4-0.1-3.3-1-2.7,2
		c0.1,0.8-0.5,0.9-2.4-1.3C1103.1,283.9,1101.8,281.5,1102.6,279.5z"/>
	<path class="st5" d="M803.8,376.4c-1.9-1.1-3.6-2.5-5.2-4.6c2.4,0,4,1.1,5.3,2.4C803.9,375,803.8,375.7,803.8,376.4z"/>
	<path class="st11" d="M702.8,493.6c2.6-0.4,3.4,0.3,4.7,3.9C705.6,496.7,704.2,495.2,702.8,493.6z"/>
	<path class="st1" d="M592.7,154.1c-3.3,3-6.4,1.5-9.3,1.6C586.1,154.6,588.9,154.1,592.7,154.1z"/>
	<path class="st5" d="M1079,216.4c1,0.6,2,1.3,2.3,2.5c-0.7,0-1.3,0-2,0c-0.7-0.3-1-1-1.1-1.7C1078.4,217,1078.7,216.7,1079,216.4z"
		/>
	<path class="st9" d="M915.5,189.4c-0.4,0-0.8-0.1-1.2-0.1C914.7,188.9,915.2,188.9,915.5,189.4z"/>
	<path class="st5" d="M1063.2,334.3c0.1-0.1,0.3-0.2,0.5-0.4C1063.5,334.1,1063.4,334.3,1063.2,334.3L1063.2,334.3z"/>
	<path class="st7" d="M926,411.2c0.1-0.1,0.2-0.2,0.3-0.3c0.1,0,0.2,0.1,0.3,0.1"/>
	<path class="st7" d="M836.7,410.9c0.1,0.1,0.3,0.2,0.3,0.3s-0.2,0.2-0.3,0.3c-0.1-0.1-0.3-0.2-0.3-0.3
		C836.3,411.1,836.5,411,836.7,410.9z"/>
	<path class="st5" d="M1062.1,335.2c0.3-0.3,0.7-0.6,1-0.9l0.1,0.1c-0.3,0.3-0.6,0.7-0.9,1C1062.4,335.5,1062.1,335.2,1062.1,335.2z
		"/>
	<path class="st9" d="M589.3,91.5c4.3,0.1,8.2,2,12.4,3c11.8,2.9,23.7,5.3,35.8,6.9c3.1,0.4,6.3,0.3,9.5,0.5
		c2.8,0.2,3.1,0.6,2.4,3.2c-0.9,3.5-2.1,7-2.8,10.5c-0.9,4.4-1.1,8.8-0.9,13.2c-1.9,5.5-4,11-6.5,16.9c-2.6-4.5-3.4-8.9-3.9-13.3
		c-0.5-5.8,0.4-11.2,2.7-16.7c2-4.9,0.2-8.5-4.7-10.7c-1.3-0.6-2.7-1.1-4.1-1.3c-8.8-1.8-17.5-4.2-26.1-6.8
		c-4.1-1.2-8.1-2.6-12.2-3.8C590,92.9,589.5,92.4,589.3,91.5z"/>
	<path class="st3" d="M956.9,448.3c-3.7,3.5-8.3,4.5-13,4.9c-7.5,0.8-14.8-0.3-22-2.7c-2.3-0.8-4.2-2-5.7-4.1c-4.6-6.7-8-14-10.2-22
		c1.6-0.2,2.1,0.9,2.8,1.5c4.2,4.1,8.1,8.5,11.8,13c1.7,2,3.7,3.3,6.2,4C936.8,445.5,946.6,447.8,956.9,448.3z"/>
	<path d="M896.8,259.2c-0.3-0.1-0.2-0.6,0.1-0.6c9,0.6,87.7,1.2,90.4,2.3c0,2.2-2.5,2.6-2.8,4.9c27.8,4.2,55.7,8,83,14.9
		c-20.1-3-40.1-6.1-60.2-9c-7.4-1.1-14.8-2-22.2-3.1c-2-0.3-4.1-0.7-6,0.6c-2.3-3.1-5.3-2.2-8.2-1.6c-0.4-0.9-4.1-0.5-4.9-0.6
		C948.2,265.7,897.3,259.4,896.8,259.2z"/>
	<path class="st3" d="M967.9,245.7c4.1,0.9,32,6.1,36.1,4.9c1-0.3,2.2-0.3,3.2-0.6c6.7-1.9,13.4,4.1,15.5,5.8
		c0.2,0.1,0.1,0.5-0.1,0.5c-2,0-3.6-1.5-5.4-2.2c-3.1-1.2-3.8-1.3-8,0.4c-0.2,0.1-0.2,0.4,0,0.5c12,3.8,46.6,14.3,58.4,21.8
		c-0.4,1.2-48-16.2-60.1-19.7c-3.7-1.1-7.2-1.6-11.1-0.6c-5.1,1.3-10.3,2-16.4,2.5c-0.3,0-0.4-0.3-0.2-0.5c3.5-2.4,6.9-3.1,10.2-4.1
		c1.3-0.4,2-0.7,1-1.9C971.5,249.4,967.5,246.4,967.9,245.7z"/>
	<path class="st10" d="M976,207.1c2.5,5.2,3.5,9.8,3.2,14.6c0,1.1-0.3,2.2-1.1,3.1c-5.1,6-11,11-18.9,12.8c-0.4,0.1-0.9,0-1.6-0.1
		c0.6-1.9,2.2-2.7,3.3-4c1-1.2,2.1-2.4,3.2-3.5c5.9-5.5,10.9-11.4,10.9-20.1C975.1,209.3,975.5,208.7,976,207.1z"/>
	<path class="st5" d="M987.2,290.4c26.5-3,53-3,79.5,0C1040.1,290.4,1013.6,290.4,987.2,290.4z"/>
	<path class="st3" d="M971,267.7c3-0.6,6-1.5,8.2,1.6c-2.9,3.3-7.1,5.2-9.7,8.9c-4.1,0-8.3-0.1-12.4-0.1c-0.9,0-1.4-0.5-1.9-1.2
		C959.9,272.8,965.6,270.6,971,267.7z"/>
	<path class="st10" d="M971,200.4c7.1,10-1.8,20.8-10.3,22.6C960.9,220.9,969.2,202.7,971,200.4z"/>
	<path class="st5" d="M1011.7,281.7c0-0.5,0-1,0-1.6c8-0.5,15.8,0.8,23.6,1.4c8.8,0.7,17.6,1.8,26.4,2.8c0.5,0,0.9,0.1,1.3,0.9
		C1045.8,284,1028.7,282.9,1011.7,281.7z"/>
	<path class="st5" d="M1037.4,251.6c-0.4-0.2-0.7-0.5-1-0.8c0.1-0.8,0.6-0.6,1-0.5c11.6,3.8,22,9.8,30.7,18.4
		c0.8,0.8,5.1,4.7,5.2,5.9C1073.3,274.6,1048.6,257.2,1037.4,251.6z"/>
	<path class="st9" d="M552.2,82.7c2.6-1.8,5.6-1.5,8.1-0.5c6.2,2.3,12.6,4.1,18.9,6.1c0.6,0.2,1,0.6,1.6,0.9
		c-0.3,0.6-0.8,0.9-1.5,0.8c-8-1.8-15.9-3.6-23.9-5.5C554.2,84.2,553,83.8,552.2,82.7z"/>
	<path class="st12" d="M797.4,38c-0.3,0.6-0.5,1.1-0.2,1.8c-2.5-0.2-4.8-0.7-7.3-2.2C792.8,36.1,795.1,37.4,797.4,38z"/>
	<path class="st9" d="M582.6,89.7c1.8-0.1,3.4,0.4,4.9,1.5C585.4,92.4,583.9,91.5,582.6,89.7z"/>
	<path class="st3" d="M905,60.6c1.2-1.2,2.2-1.1,2.8,0.7C906.8,61.1,905.9,60.8,905,60.6z"/>
	<path class="st3" d="M954.6,182.6c0.4-0.4,0.8,0,1,0.2c0,0.1-0.1,0.5-0.2,0.6c-0.5,0.1-0.8-0.1-0.9-0.6L954.6,182.6z"/>
	<path class="st5" d="M1071.8,274.3"/>
	<path class="st12" d="M1023.2,256.1"/>
	<polygon class="st3" points="812,427.4 811.9,427.2 812.2,427.2 	"/>
	<path class="st5" d="M1077.4,215.2c0.9,0,1.2,0.6,1.6,1.2c-0.3,0.3-0.6,0.6-0.8,0.9C1077.6,216.7,1077.2,216,1077.4,215.2
		L1077.4,215.2z"/>
	<path class="st5" d="M1077.5,215.2c-0.3,0.1-0.5,0-0.5-0.3c0,0,0.2,0,0.2,0C1077.4,215,1077.4,215.1,1077.5,215.2
		C1077.4,215.2,1077.5,215.2,1077.5,215.2z"/>
</g>
</svg>
